<?xml version="1.0" standalone="no"?>
<!DOCTYPE svg PUBLIC "-//W3C//DTD SVG 1.1//EN" "http://www.w3.org/Graphics/SVG/1.1/DTD/svg11.dtd" >
<svg xmlns="http://www.w3.org/2000/svg" xmlns:xlink="http://www.w3.org/1999/xlink" version="1.1">
<metadata></metadata>
<defs>
<font id="battlefinblack" horiz-adv-x="1910" >
<font-face units-per-em="2048" ascent="1638" descent="-410" />
<missing-glyph horiz-adv-x="460" />
<glyph unicode="&#xfb01;" horiz-adv-x="1568" d="M0 817v103l158 88v108q0 120 52 216t140 155t199 90t235 31q159 0 277 -34t189 -109.5t71 -186.5q0 -95 -56.5 -154t-140.5 -59q-81 0 -137.5 57.5t-56.5 139.5q0 13 2 34t22 68.5t56 73.5v18q-4 12 -36 19t-62 7l-31 1q-222 0 -222 -266v-1141l89 -39v-37h-680v37l90 39 v741h-158zM784 817v101h220q254 0 397 114h45v-956l90 -39v-37h-592v731z" />
<glyph unicode="&#xfb02;" horiz-adv-x="1689" d="M0 840v104l158 88v84q0 233 185 362.5t519 129.5h705v-1534l90 -39v-37h-682v37l90 39v1157q0 103 -18 158t-53.5 74.5t-100.5 19.5q-101 0 -166 -70t-65 -196v-185h210v-192h-210v-766l88 -39v-37h-682v37l90 39v766h-158z" />
<glyph unicode="&#xfb03;" horiz-adv-x="2533" d="M0 817v103l158 88v108q0 96 34.5 178t92.5 139t135 97t161.5 59t172.5 19t155 -17t105 -42t61.5 -61.5t31 -68.5t7.5 -69q0 -101 -46 -153t-116 -52q-83 0 -123.5 41.5t-40.5 109.5q0 3 0.5 9.5t5 25t12 37t24.5 43.5t40 47v19q-34 6 -67 6q-84 0 -114 -61t-30 -205v-209 h465v108q0 120 52 216t140.5 155t199.5 90t235 31q158 0 276 -34t189.5 -109.5t71.5 -186.5q0 -95 -56.5 -154t-140.5 -59q-83 0 -140 57.5t-57 139.5q0 5 0.5 13t5 31.5t12 44.5t24.5 45.5t40 41.5v18q-4 12 -36.5 19t-62.5 7l-30 1q-111 0 -166 -65t-55 -201v-1141l88 -39 v-37h-680v37l90 39v741h-465v-741l89 -39v-37h-680v37l90 39v741h-158zM1751 817v101h217q256 0 399 114h43v-956l91 -39v-37h-592v731z" />
<glyph unicode="&#xfb04;" horiz-adv-x="2656" d="M0 840v104l158 88v84q0 96 34.5 178t92.5 139t135 97t161.5 59t172.5 19t155 -17t105 -42t61.5 -61.5t31 -68.5t7.5 -69q0 -101 -46 -153t-116 -52q-83 0 -123.5 41.5t-40.5 109.5q0 3 0.5 9.5t5 25t12 37t24.5 43.5t40 47v19q-34 6 -67 6q-84 0 -114 -61t-30 -205v-185 h465v84q0 233 185.5 362.5t519.5 129.5h704v-1534l90 -39v-37h-681v37l90 39v1157q0 102 -18.5 157.5t-54 75t-99.5 19.5q-101 0 -166.5 -70t-65.5 -196v-185h209v-192h-209v-766l88 -39v-37h-682v37l90 39v766h-465v-764l89 -39v-37h-680v37l90 39v764h-158z" />
<glyph horiz-adv-x="0" />
<glyph horiz-adv-x="682" />
<glyph unicode="&#xd;" horiz-adv-x="368" />
<glyph unicode=" "  horiz-adv-x="460" />
<glyph unicode="&#x09;" horiz-adv-x="460" />
<glyph unicode="&#xa0;" horiz-adv-x="460" />
<glyph unicode="!" horiz-adv-x="708" d="M74 1182q0 98 79.5 153.5t202.5 55.5q121 0 200 -55.5t79 -153.5q0 -71 -14 -140.5t-35 -129.5t-43 -121t-40.5 -138t-23.5 -157h-250q-5 80 -23 157t-39.5 138t-43 121t-35.5 129.5t-14 140.5zM125 178q0 77 55 128.5t176 51.5q119 0 173.5 -51.5t54.5 -128.5 q0 -76 -54 -127t-174 -51q-121 0 -176 51t-55 127z" />
<glyph unicode="&#x22;" horiz-adv-x="907" d="M74 1223q0 78 37 123t133 45q95 0 132.5 -45.5t37.5 -122.5q0 -59 -18 -121t-45.5 -143t-41.5 -158h-133q-15 82 -58.5 214.5t-43.5 207.5zM494 1223q0 78 37 123t133 45q95 0 132.5 -45.5t37.5 -122.5q0 -59 -18 -121t-45.5 -143t-41.5 -158h-131q-15 77 -42 158.5 t-44.5 143t-17.5 120.5z" />
<glyph unicode="#" horiz-adv-x="1343" d="M55 285v295q47 6 120.5 11t122.5 7l50 2l14 201q-201 10 -307 24v295q54 7 137.5 13.5t139.5 8.5l57 3l17 211h217l-23 -205h72h151l15 205h221l-25 -215q162 -9 254 -21v-295q-44 -6 -117 -12t-123 -9l-51 -3l-22 -199q198 -8 313 -22v-295q-55 -8 -142.5 -14.5 t-147.5 -9.5l-60 -3l-29 -258h-172l19 252h-84q-115 0 -168 2l-31 -254h-170l19 262q-175 9 -267 23zM543 608h129h110l15 189q-19 0 -60.5 -1t-64.5 -1h-111z" />
<glyph unicode="$" horiz-adv-x="1669" d="M86 344q0 82 57.5 138.5t137.5 56.5q78 0 131 -47t53 -115q0 -4 -0.5 -10.5t-5 -25.5t-12.5 -36.5t-25 -39t-41 -36.5v-6q31 -25 117.5 -42.5t157.5 -22.5l71 -4v311q-70 23 -116 38.5t-107 38t-101 40.5t-87.5 43t-78 48.5t-62 54t-48.5 62t-28 70t-11 80.5 q0 194 171.5 310.5t467.5 135.5v170h217v-172q145 -14 262.5 -58t189.5 -118.5t72 -165.5q0 -82 -50 -136t-128 -54t-131 46t-53 112q0 11 2 28t19 56t47 63v8q-26 19 -83.5 34t-102.5 21l-44 5v-340q7 -3 33 -11t41 -14q203 -69 255 -91q201 -84 268 -202q42 -73 42 -166 q0 -175 -163.5 -290.5t-475.5 -139.5v-168h-217v168q-120 7 -232.5 35t-205 73.5t-148 114.5t-55.5 150zM526 1100q0 -45 41 -73.5t160 -68.5v269q-96 -10 -148.5 -45.5t-52.5 -81.5zM944 156q97 8 145 33t48 75q0 28 -31 53.5t-67.5 41.5t-94.5 36v-239z" />
<glyph unicode="%" horiz-adv-x="2584" d="M74 969q0 94 45.5 175t120.5 134t169 83t193 30q134 0 254 -50t198.5 -148.5t78.5 -223.5q0 -192 -147.5 -305t-383.5 -113q-235 0 -381.5 113t-146.5 305zM434 969q0 -145 51.5 -217t116.5 -72t116.5 72t51.5 217q0 146 -51.5 218.5t-116.5 72.5t-116.5 -72.5 t-51.5 -218.5zM467 -37l1397 1430h254l-1395 -1430h-256zM1454 387q0 76 29.5 143t80.5 116.5t117.5 86t143 54.5t155.5 18q100 0 194.5 -29.5t170 -81.5t121 -132.5t45.5 -174.5q0 -193 -147.5 -306.5t-383.5 -113.5q-235 0 -380.5 113.5t-145.5 306.5zM1815 387 q0 -146 50 -217.5t115 -71.5t116.5 71.5t51.5 217.5q0 145 -51.5 217t-116.5 72t-115 -72t-50 -217z" />
<glyph unicode="&#x26;" horiz-adv-x="2056" d="M86 383q0 142 110 251.5t291 160.5q-114 129 -114 249q0 145 132 246t353 101q245 0 376.5 -90.5t131.5 -241.5q0 -98 -60.5 -179.5t-181.5 -125.5q11 -9 32.5 -25t31.5 -24l260 -218q141 181 166 373l-137 60v59h561v-59l-137 -60q-106 -259 -326 -475l323 -266l140 -60 l-2 -59h-625l-162 135q-285 -168 -571 -168q-136 0 -249 33.5t-187.5 90.5t-115 132t-40.5 160zM582 487q0 -148 81.5 -225.5t229.5 -77.5q113 0 237 52l-385 319q-24 20 -65.5 57.5t-44.5 40.5q-53 -53 -53 -166zM793 1135q0 -50 36.5 -103t131.5 -139q55 41 84.5 97 t29.5 114q0 66 -48 109.5t-114 43.5q-55 0 -87.5 -34.5t-32.5 -87.5z" />
<glyph unicode="'" horiz-adv-x="487" d="M74 1223q0 78 37 123t133 45q95 0 132.5 -45.5t37.5 -122.5q0 -59 -18 -121t-45.5 -143t-41.5 -158h-133q-15 82 -58.5 214.5t-43.5 207.5z" />
<glyph unicode="(" horiz-adv-x="870" d="M74 658v20q0 12 1.5 34t14.5 88.5t35 131.5t71 155t115.5 169t174.5 161.5t241 143.5l107 -111q-59 -56 -106.5 -129t-76.5 -145t-50.5 -145.5t-31 -136t-15.5 -111.5t-6 -77l-1 -28q0 -10 0.5 -28.5t6.5 -75.5t15.5 -113.5t31 -134.5t50.5 -147t76.5 -143t106.5 -130 l-107 -111q-105 48 -194.5 109t-151.5 123.5t-113 130t-82 130t-54.5 121.5t-34 107.5t-16.5 85t-7 56.5z" />
<glyph unicode=")" horiz-adv-x="870" d="M37 -94q80 77 138.5 185t85.5 207t42.5 187t16.5 141l2 52q0 20 -1.5 55t-17 135.5t-42.5 192t-85.5 202t-138.5 187.5l106 111q133 -61 241 -142.5t174.5 -163.5t115.5 -166.5t71.5 -157t35.5 -130t15 -90.5l1 -33q0 -12 -1.5 -33.5t-14.5 -88t-35.5 -132t-71.5 -155 t-115.5 -168.5t-174.5 -162t-241 -144z" />
<glyph unicode="*" horiz-adv-x="745" d="M45.5 973q2.5 36 34.5 53q19 12 40.5 20t35.5 11t41 8t39 8v23q-13 3 -39 7.5t-40.5 8t-36 11t-40.5 18.5q-32 18 -34.5 54.5t20.5 72.5q51 85 116 49q24 -14 42.5 -31.5t39.5 -42.5t33 -37l22 13q-4 14 -12.5 37.5t-13 38.5t-8.5 36.5t-4 42.5q0 37 28.5 56.5t73.5 19.5 t72.5 -19.5t27.5 -56.5q0 -27 -5.5 -50.5t-17.5 -58t-16 -46.5l23 -13q9 10 25.5 29t27.5 30.5t28 26t36 25.5q32 17 61.5 3t52.5 -52q23 -36 20 -72.5t-34 -54.5q-19 -11 -40 -18.5t-36 -11t-40 -8t-38 -7.5v-23l37.5 -7.5t41 -9t35 -11.5t40.5 -19q31 -18 34 -53.5 t-20 -71.5q-23 -39 -52.5 -53.5t-61.5 2.5q-19 11 -36.5 26t-27.5 26t-27.5 31.5t-25.5 29.5l-23 -13q3 -11 15.5 -46t18 -59t5.5 -52q0 -36 -28 -56t-72 -20t-73 20t-29 56q0 21 4 43.5t8.5 37t13 39t12.5 37.5l-22 13q-11 -12 -33 -38t-40 -43.5t-42 -31.5 q-35 -17 -64 -2.5t-52 53.5q-23 36 -20.5 72z" />
<glyph unicode="+" horiz-adv-x="921" d="M86 414v204h272v273h205v-273h273v-204h-273v-273h-205v273h-272z" />
<glyph unicode="," horiz-adv-x="622" d="M92 170q0 78 55 133t175 55q61 0 107.5 -20t71 -52.5t36.5 -67.5t12 -71q0 -64 -20.5 -120.5t-53.5 -96t-77.5 -71t-89.5 -50t-91 -28.5l-27 49q129 99 140 186h-11q-11 -7 -26 -11t-24 -5h-9q-85 0 -126.5 48t-41.5 122z" />
<glyph unicode="-" horiz-adv-x="645" d="M86 414v204h473v-204h-473z" />
<glyph unicode="." horiz-adv-x="622" d="M92 178q0 77 54.5 128.5t175.5 51.5q119 0 173 -51.5t54 -128.5t-54 -127.5t-173 -50.5q-121 0 -175.5 51t-54.5 127z" />
<glyph unicode="/" horiz-adv-x="724" d="M37 -37l444 1430h240l-445 -1430h-239z" />
<glyph unicode="0" horiz-adv-x="1853" d="M86 662q0 126 48 237.5t130.5 194t190 142.5t229 90t244.5 30t244 -30t228 -90t189 -142.5t130 -194t48 -237.5q0 -159 -63.5 -290.5t-175.5 -219.5t-266 -136.5t-334 -48.5q-241 0 -431 82.5t-300.5 242t-110.5 370.5zM639 662q0 -141 22 -245t62 -164.5t91 -89 t114 -28.5q130 0 208 126.5t78 400.5t-78 401t-208 127q-63 0 -114 -29t-91 -89.5t-62 -164.5t-22 -245z" />
<glyph unicode="1" horiz-adv-x="835" d="M18 0v57l136 58v747l-136 72v98q9 0 25.5 0.5t66.5 7t98.5 17.5t113 35.5t119 57.5t108 86.5t88.5 119.5h45v-1241l135 -58v-57h-799z" />
<glyph unicode="2" horiz-adv-x="1398" d="M37 0v57q72 48 133.5 91t143.5 106t147.5 120.5t132.5 127.5t112.5 134t74 134.5t28.5 134.5q0 113 -79.5 188.5t-199.5 75.5q-110 0 -153 -22v-23q39 -35 68.5 -93.5t29.5 -100.5q0 -92 -57 -144.5t-150 -52.5q-79 0 -139.5 56t-60.5 161q0 70 42.5 140.5t120 130.5 t203 97.5t275.5 37.5q160 0 287 -36.5t205.5 -99t119.5 -141.5t41 -168q0 -71 -34 -143t-88.5 -132.5t-128 -120t-146 -104.5t-150.5 -86t-133.5 -66t-101.5 -42v-16h202q114 0 187.5 9.5t128.5 36.5t89.5 59.5t82.5 94.5h92v-401h-1325z" />
<glyph unicode="3" horiz-adv-x="1482" d="M18 193l48 133q244 -154 460 -154q161 0 245.5 71t84.5 160q0 37 -11.5 70t-45.5 66.5t-87 52.5t-144.5 18.5t-209.5 -26.5v125q9 3 52.5 14.5t80 23t90 31t94.5 44t79 55.5t59 72t21 87q0 60 -40 96.5t-108 36.5q-34 0 -69.5 -8t-85 -32.5t-99 -63.5t-109.5 -107 t-118 -157l-144 26v494h146l65 -121q259 156 506 156q126 0 217 -25.5t141 -70.5t72.5 -99t22.5 -119q0 -61 -31 -126.5t-76 -98.5v-8q79 -16 137 -55t89 -89.5t45 -100t14 -99.5q0 -140 -96 -255t-265 -180t-376 -65q-122 0 -231 22t-189.5 58.5t-135.5 72t-98 75.5z" />
<glyph unicode="4" horiz-adv-x="1554" d="M0 295v57q61 71 109.5 180t74.5 213.5t43.5 199t22.5 152.5l6 58l-129 70v98h563q0 -11 -0.5 -30.5t-6.5 -79t-16.5 -118.5t-33 -140.5t-53 -154t-80.5 -150t-111 -136.5v-18h465v827h528v-827h136v-201h-136v-180l136 -58v-57h-799v57l135 58v180h-854z" />
<glyph unicode="5" horiz-adv-x="1423" d="M55 311q0 78 46 126t118 48q59 0 97 -38.5t38 -94.5q0 -88 -63 -151v-15q70 -34 172 -34q156 0 245 77t89 195q0 33 -7.5 63.5t-27.5 63.5t-51.5 57.5t-84 40t-120.5 15.5q-139 0 -340 -72l-47 24l14 705h957l-3 2l70 123h133l-28 -442l-883 100v-266q13 4 57.5 16.5 t73.5 19.5t76 16.5t100 14t111 4.5q245 0 399 -116.5t154 -317.5q0 -221 -178 -364.5t-488 -143.5q-161 0 -305 43.5t-234 123.5t-90 177z" />
<glyph unicode="6" horiz-adv-x="1693" d="M86 543q0 129 54 249.5t160 222.5t252 178.5t341.5 119.5t417.5 43l18 -107q-262 -63 -428 -171t-248 -277v-6q71 35 183.5 60.5t220.5 25.5q92 0 174.5 -14.5t154 -46t123.5 -77.5t81.5 -112.5t29.5 -147.5q0 -126 -65 -226.5t-176 -162.5t-251.5 -94.5t-298.5 -32.5 q-205 0 -375 73.5t-269 206t-99 296.5zM594 483q0 -169 62 -258.5t173 -89.5q102 0 170 70t68 217q0 133 -56.5 200.5t-181.5 67.5q-127 0 -225 -55q-10 -82 -10 -152z" />
<glyph unicode="7" horiz-adv-x="1304" d="M37 885v438h1268v-98l-142 -72q-97 -94 -160 -190t-88.5 -171t-33 -157t-1 -137t15.5 -123t9 -103q0 -141 -80 -223t-209 -82q-159 0 -240 88t-81 232q0 87 35.5 172.5t89 151t125 132.5t135.5 116t127.5 103t95.5 91v41l-655 -76l-68 -158z" />
<glyph unicode="8" horiz-adv-x="1730" d="M74 387q0 131 101.5 236.5t260.5 136.5v6q-84 26 -141 95t-57 143q0 159 169 255.5t459 96.5t458.5 -96.5t168.5 -255.5q0 -74 -57.5 -143t-141.5 -95v-6q159 -31 261 -136.5t102 -236.5q0 -198 -206.5 -309t-586.5 -111q-379 0 -584.5 111t-205.5 309zM627 387 q0 -291 239 -291q238 0 238 291q0 149 -63.5 213t-176.5 64t-175 -63.5t-62 -213.5zM682 1018q0 -110 56 -163.5t128 -53.5t127.5 53.5t55.5 163.5q0 215 -185 215q-182 0 -182 -215z" />
<glyph unicode="9" horiz-adv-x="1691" d="M74 842q0 154 108.5 273t283.5 180t384 61q176 0 319.5 -43t238.5 -119.5t146.5 -182t51.5 -229.5q0 -162 -78 -303.5t-222 -249.5t-360.5 -177t-482.5 -85l-19 107q231 83 391.5 197.5t217.5 256.5v7q-74 -37 -192 -65t-232 -28q-110 0 -208 24.5t-176.5 72t-124.5 126 t-46 177.5zM627 901q0 -133 55.5 -199.5t181.5 -66.5q133 0 226 55q10 59 10 150q0 169 -63 259.5t-173 90.5q-103 0 -170 -71t-67 -218z" />
<glyph unicode=":" horiz-adv-x="622" d="M92 178q0 77 54.5 128.5t175.5 51.5q119 0 173 -51.5t54 -128.5t-54 -127.5t-173 -50.5q-121 0 -175.5 51t-54.5 127zM92 715q0 76 54.5 127t175.5 51q119 0 173 -50.5t54 -127.5t-54 -127.5t-173 -50.5q-121 0 -175.5 51t-54.5 127z" />
<glyph unicode=";" horiz-adv-x="622" d="M92 170q0 78 55 133t175 55q61 0 107.5 -20t71 -52.5t36.5 -67.5t12 -71q0 -64 -20.5 -120.5t-53.5 -96t-77.5 -71t-89.5 -50t-91 -28.5l-27 49q129 99 140 186h-11q-11 -7 -26 -11t-24 -5h-9q-85 0 -126.5 48t-41.5 122zM92 715q0 76 54.5 127t175.5 51q119 0 173 -50.5 t54 -127.5t-54 -127.5t-173 -50.5q-121 0 -175.5 51t-54.5 127z" />
<glyph unicode="&#x3c;" horiz-adv-x="714" d="M63 516l486 549h166l-334 -549l334 -549h-166z" />
<glyph unicode="=" horiz-adv-x="921" d="M86 233v207h750v-207h-750zM86 592v207h750v-207h-750z" />
<glyph unicode="&#x3e;" horiz-adv-x="714" d="M0 -33l334 549l-334 549h166l485 -549l-485 -549h-166z" />
<glyph unicode="?" horiz-adv-x="1335" d="M74 1004q0 59 17 112.5t59 104t105 87.5t161.5 59t222.5 22q163 0 286.5 -35t195 -95.5t106.5 -133.5t35 -156q0 -64 -25 -115t-64.5 -84t-87.5 -60t-96.5 -48.5t-88 -44t-64.5 -53t-25 -68.5v-27h-379v27q0 58 23 101.5t57 68t74.5 53.5t74.5 57.5t57 82t23 124.5 q0 109 -60 170t-179 61q-115 0 -174 -38v-25q78 -25 119.5 -82t41.5 -117q0 -86 -51.5 -136t-142.5 -50q-94 0 -157.5 64t-63.5 174zM393 178q0 77 54.5 128.5t173.5 51.5q121 0 175 -51.5t54 -128.5t-54 -127.5t-175 -50.5q-120 0 -174 51t-54 127z" />
<glyph unicode="@" horiz-adv-x="1853" d="M86 678q0 129 47 243.5t128.5 199t188.5 146.5t229.5 93t248.5 31q123 0 244 -29.5t228 -89t189 -140t130 -190.5t48 -233q0 -72 -23 -144.5t-67.5 -136t-121.5 -103.5t-173 -40q-103 0 -182 40.5t-115 114.5h-8q-22 -23 -38.5 -36.5t-48.5 -33t-77.5 -29t-103.5 -9.5 q-151 0 -227 89.5t-76 240.5q0 68 21.5 128.5t63 109t109.5 76.5t154 28q167 0 246 -111l121 92h77v-453q0 -34 21.5 -56.5t56.5 -22.5q50 0 78.5 62.5t28.5 162.5q0 123 -49 228t-128.5 173.5t-178 107t-199.5 38.5q-81 0 -163 -24t-155 -71.5t-130 -112t-90.5 -152.5 t-33.5 -187q0 -124 45 -227.5t122.5 -173t182 -108t222.5 -38.5q104 0 219 39l18 6q61 21 160 -7q85 -25 98 -59q7 -18 -14 -34q-207 -109 -481 -109q-184 0 -339.5 49.5t-267 140t-173.5 224.5t-62 297zM823 682q0 -165 23 -188q21 -21 59 -21q47 0 88 27v364 q-32 19 -73 19q-49 0 -70 -21q-27 -27 -27 -180z" />
<glyph unicode="A" d="M41 0v59l137 60l572 1237h409l572 -1237l139 -60v-59h-858v59l139 60v-2l-86 186h-537l-75 -184l137 -60v-59h-549zM610 506h361l-189 414h-6z" />
<glyph unicode="B" horiz-adv-x="1787" d="M61 0v59l140 60v1063l-140 73v101h1008q496 0 496 -342q0 -75 -23.5 -125.5t-66.5 -100.5v-6q105 -32 172 -134.5t67 -219.5q0 -92 -30.5 -166t-97 -134.5t-184 -94t-278.5 -33.5h-1063zM727 575l4 -368h211q106 0 162.5 47.5t56.5 122.5q0 27 -3 49.5t-16.5 52t-36.5 49 t-67 33.5t-104 14h-207zM727 782q166 33 305 49q64 80 64 173q0 82 -52 114.5t-153 32.5h-164v-369z" />
<glyph unicode="C" horiz-adv-x="1632" d="M86 653q0 162 62 301t167.5 234t246.5 149t298 54q261 0 469 -160h6l64 125h147v-537l-192 -28q-32 109 -80 191.5t-101 128.5t-105 68.5t-101 22.5q-155 0 -241.5 -138t-86.5 -402q0 -122 32.5 -218.5t86 -153t118 -85.5t134.5 -29q43 0 86 5.5t87 17.5t76.5 21.5 t76.5 28.5t63 27.5t60 29t46 22.5l54 -99q-117 -127 -296.5 -194.5t-373.5 -67.5q-137 0 -255 24t-220 77.5t-174 132.5t-113 194t-41 258z" />
<glyph unicode="D" horiz-adv-x="1925" d="M61 0v59l138 60v1063l-138 73v101h932q423 0 634.5 -179t211.5 -495q0 -149 -43 -273.5t-126 -215.5t-211.5 -142t-291.5 -51h-1106zM727 207h291q122 0 195 123t73 360q0 68 -7.5 126.5t-30.5 122.5t-60 109t-101 74t-149 29h-211v-944z" />
<glyph unicode="E" horiz-adv-x="1480" d="M61 0v59l138 60v1063l-138 73v101h1354v-404l-139 -24l-82 223h-467v-369h219l60 138h86v-486h-86l-60 139l2 2h-221v-368h508l84 225l141 -29v-403h-1399z" />
<glyph unicode="F" horiz-adv-x="1380" d="M61 0v59l138 60v1063l-138 73v101h1299v-404l-139 -24l-82 223h-412v-465h236l59 137h84v-483h-84l-59 139h2h-238v-360l137 -60v-59h-803z" />
<glyph unicode="G" horiz-adv-x="1884" d="M86 678q0 129 42.5 243t118 199t175.5 146.5t218.5 93t244.5 31.5q310 0 518 -160h6l61 125h150v-537l-193 -28q-54 185 -169.5 298t-249.5 113q-73 0 -138 -31.5t-117.5 -93t-83 -162.5t-30.5 -229q0 -258 86 -386t266 -128q112 0 207 57v234l-137 74v100h803v-100 l-138 -74v-463h-102l-96 182h-17q-38 -32 -96 -66t-141 -69t-194 -57.5t-226 -22.5q-163 0 -301 43.5t-243 128.5t-164.5 223t-59.5 316z" />
<glyph unicode="H" horiz-adv-x="2013" d="M61 0v59l138 60v1063l-138 73v101h805v-101l-139 -73v-400h559v400l-139 73v101h805v-101l-140 -73v-1063l140 -60v-59h-805v59l139 60v456h-559v-456l139 -60v-59h-805z" />
<glyph unicode="I" horiz-adv-x="925" d="M61 0v59l138 58v1065l-138 73v101h803v-101l-137 -73v-1065l137 -58v-59h-803z" />
<glyph unicode="J" horiz-adv-x="1140" d="M20 59v430h158l105 -282q22 -57 71 -57q26 0 43.5 12.5t24.5 35.5t9.5 43.5t2.5 49.5v891l-137 73v101h803v-101l-137 -73v-557q0 -149 -37 -266.5t-95.5 -189.5t-136.5 -119t-153 -65t-152 -18q-106 0 -207 28.5t-162 63.5z" />
<glyph unicode="K" horiz-adv-x="1968" d="M61 0v59l138 58v1065l-138 73v101h803v-101l-137 -73v-447l516 447l-104 73v101h665v-101l-192 -73l-330 -285l530 -780l138 -58v-59h-686l-367 580l-170 -144v-319l137 -58v-59h-803z" />
<glyph unicode="L" horiz-adv-x="1447" d="M61 0v59l138 60v1063l-138 73v101h803v-101l-137 -73v-975h414l108 282h158v-489h-1346z" />
<glyph unicode="M" horiz-adv-x="2304" d="M61 0v59l138 60v1063l-138 73v101h809l295 -727h6l283 727h789v-101l-140 -73v-1065l140 -58v-59h-805v59l139 58v887h-6l-410 -1004h-311l-408 1004h-4v-885l137 -60v-59h-514z" />
<glyph unicode="N" horiz-adv-x="1863" d="M61 0v59l138 60v1063l-138 73v101h693l667 -883h6v709l-139 73v101h514v-101l-137 -73v-1182h-526l-695 913h-6v-794l137 -60v-59h-514z" />
<glyph unicode="O" horiz-adv-x="1835" d="M86 678q0 129 46 243.5t126.5 199t186 146.5t227.5 93t248 31q125 0 246.5 -31t226.5 -93t184.5 -146.5t125.5 -199t46 -243.5q0 -179 -62.5 -316t-176.5 -222.5t-267.5 -129t-341.5 -43.5q-186 0 -335 44.5t-256.5 131.5t-165.5 223t-58 312zM639 662q0 -488 281 -488 q276 0 276 488q0 113 -6.5 193t-24.5 149t-49 110.5t-79.5 64.5t-116.5 23q-69 0 -118 -23t-80.5 -64.5t-50 -110.5t-25.5 -149.5t-7 -192.5z" />
<glyph unicode="P" horiz-adv-x="1705" d="M61 0v59l138 60v1063l-138 73v101h983q287 0 437.5 -117.5t150.5 -333.5q0 -204 -144.5 -338.5t-391.5 -134.5q-129 0 -369 70v-383l137 -60v-59h-803zM727 707h203q110 0 156.5 47t46.5 159q0 113 -54 175.5t-149 62.5h-203v-444z" />
<glyph unicode="Q" horiz-adv-x="1835" d="M86 678q0 129 46 243.5t126.5 199t186 146.5t227.5 93t248 31q125 0 246.5 -31t226.5 -93t184.5 -146.5t125.5 -199t46 -243.5q0 -179 -62.5 -316t-176.5 -222.5t-267.5 -129t-341.5 -43.5q-101 0 -179 -34t-122 -93l10 -12q45 25 111 25q80 0 178.5 -24.5t177 -54.5 t182.5 -54.5t195 -24.5q11 0 30 1t75.5 8.5t109.5 21.5t121.5 43.5t122.5 70.5l69 -53q-31 -93 -78 -168.5t-96.5 -122t-102.5 -81t-99.5 -50t-83.5 -24.5t-58 -10l-22 -1q-106 0 -200.5 37.5t-164 91t-133 106.5t-135 90.5t-143.5 37.5q-84 0 -111 -51q-12 -53 -47.5 -83 t-85.5 -30q-68 0 -114 39.5t-46 97.5q0 98 86.5 188.5t226.5 151.5v4q-232 69 -360.5 238t-128.5 430zM639 662q0 -488 281 -488q276 0 276 488q0 113 -6.5 193t-24.5 149t-49 110.5t-79.5 64.5t-116.5 23q-69 0 -118 -23t-80.5 -64.5t-50 -110.5t-25.5 -149.5t-7 -192.5z " />
<glyph unicode="R" horiz-adv-x="1851" d="M61 0v59l138 60v1063l-138 73v101h1004q284 0 437 -115.5t153 -310.5q0 -118 -68.5 -212.5t-197.5 -156.5v-8q77 -39 141.5 -117t101 -155.5t60.5 -161.5l139 -60v-59h-666q-36 179 -64 252q-71 189 -226 234q-53 16 -117 16h-31v-383l137 -60v-59h-803zM727 709h172 q108 0 155.5 56t47.5 173q0 96 -55 154.5t-148 58.5h-172v-442z" />
<glyph unicode="S" horiz-adv-x="1662" d="M74 0v473l114 29q151 -151 330.5 -251.5t325.5 -100.5q192 0 192 110q0 43 -52 74.5t-150 64.5q-40 13 -119 39q-94 31 -141.5 47t-128.5 47.5t-123.5 55t-98 62t-82.5 76.5t-47 89t-20 109q0 96 37.5 178.5t113 148t201 103t289.5 37.5q117 0 274 -38.5t252 -92.5l57 96 h154v-447l-82 -16q-73 98 -180 171t-201.5 105.5t-167.5 32.5q-91 0 -142.5 -36t-51.5 -91q0 -18 4.5 -33.5t16 -29.5t23 -25t36 -24t44 -22t57 -23t64.5 -24t77 -27q17 -6 26 -9q218 -76 250 -89q236 -93 315 -210q49 -72 49 -160q0 -206 -166.5 -319t-498.5 -113 q-117 0 -235 23.5t-245 61.5t-174 48l-41 -100h-155z" />
<glyph unicode="T" horiz-adv-x="1572" d="M41 909v447h1491v-447l-94 -16l-178 258h-209v-1034l139 -58v-59h-807v59l139 58v1034h-209l-178 -258z" />
<glyph unicode="U" horiz-adv-x="1703" d="M61 1255v101h805v-101l-139 -73v-684q0 -90 25 -156t67.5 -101t89.5 -51t99 -16t98.5 16t89 51t67.5 101t25 156v684l-139 73v101h514v-101l-137 -73v-588q0 -162 -47 -283t-135 -196t-208.5 -111.5t-273.5 -36.5q-317 0 -490 154t-173 473v588z" />
<glyph unicode="V" horiz-adv-x="1859" d="M41 1255v101h858v-101l-137 -73l336 -746h4l307 746l-139 73v101h549v-101l-142 -73l-542 -1182h-410l-547 1182z" />
<glyph unicode="W" horiz-adv-x="2672" d="M41 1255v101h844v-101l-137 -73l270 -680h6l180 524l-74 182l-86 47v101h738v-101l-84 -45l284 -708h5l237 680l-139 73v101h547v-101l-138 -73l-473 -1182h-407l-277 694h-6l-270 -694h-412l-471 1182z" />
<glyph unicode="X" horiz-adv-x="1906" d="M41 1255v101h975v-101l-129 -73l192 -271h6l240 271l-131 73v101h635v-101l-166 -73l-436 -457l446 -606l193 -60v-59h-959v59l119 60l-215 276h-6l-244 -276l133 -60v-59h-626v59l157 60l443 465l-447 598z" />
<glyph unicode="Y" horiz-adv-x="1878" d="M41 1255v101h926v-101l-123 -73l272 -418h4l230 418l-121 73v101h608v-101l-160 -73l-465 -678v-387l140 -58v-59h-805v59l137 58v387l-487 678z" />
<glyph unicode="Z" horiz-adv-x="1579" d="M41 0v59l776 1086v6h-123q-77 0 -137.5 -7t-109 -26t-81.5 -36.5t-69 -53.5t-56.5 -60.5t-58.5 -74.5l-94 16v447h1450v-101l-766 -1042v-6h172q86 0 155 16t111.5 35t88 63.5t65 70t61.5 85.5q13 18 19 27h94v-504h-383h-1114z" />
<glyph unicode="[" horiz-adv-x="667" d="M74 -213v1782h649v-60l-231 -59v-1544l231 -60v-59h-649z" />
<glyph unicode="\" horiz-adv-x="755" d="M37 1393h237l445 -1430h-240z" />
<glyph unicode="]" horiz-adv-x="667" d="M-55 -154l229 60v1544l-229 59v60h649v-1782h-649v59z" />
<glyph unicode="^" horiz-adv-x="1077" d="M63 514v166l476 676l475 -676v-166l-473 453z" />
<glyph unicode="_" horiz-adv-x="1105" d="M0 -184h1106v-92h-1106v92z" />
<glyph unicode="`" horiz-adv-x="1290" d="M264 1403q0 59 37 96t102 37q37 0 66 -11.5t52 -36.5t35.5 -44.5t31.5 -54.5q31 -61 77 -104t138 -79v-55h-150q-16 4 -54.5 14t-63.5 16.5t-63.5 19t-64 24.5t-55 30.5t-47 39t-29.5 48.5t-12 60z" />
<glyph unicode="a" horiz-adv-x="1374" d="M55 238q0 149 114 228q89 61 314 114q5 2 267 59v49q0 125 -47.5 182.5t-149.5 57.5q-94 0 -135 -17v-16q17 -19 26 -31.5t19 -38t10 -51.5q0 -53 -39 -94t-104 -41q-72 0 -123 41.5t-51 128.5q0 120 115.5 189t357.5 69q90 0 162.5 -5.5t146 -20t127 -41t96.5 -66.5 t65.5 -99.5t22.5 -136.5l2 -600l90 -39v-36q-13 -6 -36 -15t-91.5 -24t-132.5 -15q-256 0 -315 133h-6q-66 -57 -172 -95t-201 -38q-160 0 -246 69.5t-86 199.5zM479 276q0 -63 28 -91.5t89 -28.5q67 0 154 63v291q-161 -55 -216 -101.5t-55 -132.5z" />
<glyph unicode="b" horiz-adv-x="1529" d="M0 1255v101h217q252 0 399 117h43v-502h7q61 43 157 69.5t170 26.5q223 0 343 -131.5t120 -368.5q0 -89 -22 -174.5t-69 -163t-113.5 -135.5t-162 -92.5t-208.5 -34.5q-244 0 -400 176h-6l-188 -141h-129v1167zM659 166q48 -29 123 -29q39 0 65 8t43.5 34t26.5 48.5 t13.5 81t5 99.5t0.5 133q0 76 -0.5 109.5t-4.5 81t-11.5 65.5t-22 39.5t-37 27.5t-55.5 6q-35 0 -71.5 -18t-55.5 -36l-19 -17v-633z" />
<glyph unicode="c" horiz-adv-x="1251" d="M74 502q0 168 86.5 298t231.5 198.5t321 68.5q125 0 219 -23t144.5 -55.5t81.5 -76.5t39.5 -77t8.5 -65q0 -109 -51.5 -177.5t-148.5 -68.5q-85 0 -128.5 47.5t-43.5 110.5v6q0 30 8 58q10 32 24 54t28 39.5t24 26.5l10 8v27q-22 13 -43.5 19t-35 7t-38.5 1 q-123 0 -175 -95.5t-52 -330.5q0 -60 5.5 -108t22 -96.5t44 -81t74 -53t108.5 -20.5q164 0 307 78l59 -84q-29 -27 -70.5 -53.5t-101.5 -53.5t-142 -44t-171 -17q-83 0 -168.5 17.5t-172 58t-153.5 100t-109 152.5t-42 205z" />
<glyph unicode="d" horiz-adv-x="1501" d="M74 522q0 156 58.5 278t176.5 194.5t279 72.5q74 0 152 -20.5t124 -59.5h6v182l-159 86v101h219q250 0 397 117h45v-1203l94 -53v-100q-8 0 -22.5 -0.5t-57.5 -7t-84.5 -17t-96 -34.5t-99.5 -56h-82v164h-2q-75 -93 -199.5 -146t-267.5 -53q-103 0 -184.5 28t-136.5 77 t-91.5 119.5t-52.5 152.5t-16 178zM594 494q0 -227 19.5 -292t111.5 -65q35 0 71 18t55 36l19 18v629q-50 30 -120 30q-111 0 -133.5 -65t-22.5 -309z" />
<glyph unicode="e" horiz-adv-x="1398" d="M74 502q0 168 86 298t230.5 198.5t320.5 68.5q143 0 251.5 -25.5t174 -67t106.5 -101.5t55.5 -121.5t14.5 -135.5q0 -65 -8 -109.5t-33 -73.5t-49.5 -45.5t-79.5 -24.5t-99.5 -9.5t-130.5 -1.5h-325q0 -120 45 -164.5t162 -44.5q154 0 260.5 39t206.5 107l63 -86 q-8 -10 -23 -25.5t-69.5 -56t-117 -71t-165 -56t-213.5 -25.5q-83 0 -170.5 17.5t-177 58.5t-158.5 100t-113 152t-44 205zM588 479h63t70.5 -0.5t53 4.5t37.5 13.5t23.5 27t12.5 44.5t4 67q0 293 -154 293q-76 0 -98 -81q-12 -45 -12 -174v-39v-59v-96z" />
<glyph unicode="f" horiz-adv-x="837" d="M0 840v104l158 88v84q0 96 34.5 178t92.5 139t135 97t161.5 59t172.5 19t155 -17t105 -42t61.5 -61.5t31 -68.5t7.5 -69q0 -101 -46 -153t-116 -52q-83 0 -123.5 41.5t-40.5 109.5q0 37 20.5 77.5t41.5 62.5l20 22v19l-67 6q-84 0 -114 -61t-30 -205v-185h211v-192h-211 v-764l89 -39v-37h-680v37l90 39v764h-158z" />
<glyph unicode="g" horiz-adv-x="1353" d="M20 -76q0 61 22.5 122.5t58.5 109.5t68.5 82t63.5 57v6q-149 109 -149 295q0 64 16 125.5t57.5 124.5t103.5 110t162.5 77t227.5 30q182 0 301 -45q40 94 119.5 150.5t173.5 56.5q49 0 86 -12.5t56.5 -31t31.5 -43.5t15.5 -44t3.5 -39q0 -83 -37 -120.5t-90 -37.5 q-64 0 -95.5 30.5t-31.5 80.5q0 23 9 50.5t17 43.5l9 16l-13 15q-5 -1 -13 -4t-28.5 -16t-36 -31.5t-28.5 -54.5t-13 -81q68 -49 111 -133.5t43 -167.5q0 -73 -15.5 -137.5t-55 -127t-101 -107t-160 -72t-225.5 -27.5q-208 0 -344 62q-86 -69 -86 -146q0 -60 40.5 -84 t119.5 -24q78 0 162.5 21.5t147 48t151.5 48t176 21.5q130 0 198 -74t68 -188q0 -96 -45.5 -182t-131.5 -154t-223 -108t-307 -40q-222 0 -344.5 69t-122.5 167q0 40 27 76q-150 77 -150 237zM313 -397q0 -31 35 -54.5t86 -34.5t93 -16.5t69 -5.5q162 0 255 41t93 98 q0 42 -28.5 61t-71.5 19q-45 0 -106 -20.5t-139 -41t-165 -20.5q-11 0 -102 11q-19 -11 -19 -37zM539 645q0 -184 32.5 -263t110.5 -79q62 0 88.5 68t26.5 223q0 186 -33 263t-111 77q-64 0 -89 -66t-25 -223z" />
<glyph unicode="h" horiz-adv-x="1519" d="M0 1253v101h217q256 0 399 114h43v-548q121 67 223 106t197 39q73 0 129 -18.5t91.5 -49t58.5 -74.5t32 -91t9 -103v-653l88 -39v-37h-590v649q0 69 -21 95t-81 26q-58 0 -136 -43v-651l91 -39v-37h-678h-4v37l90 39v1093z" />
<glyph unicode="i" horiz-adv-x="782" d="M0 711v102h217q261 0 399 115h43v-852l91 -39v-37h-680v37l88 39v551zM119 1208q0 104 73 177t177 73q103 0 176 -73t73 -177q0 -103 -73 -176.5t-176 -73.5q-104 0 -177 73.5t-73 176.5z" />
<glyph unicode="j" horiz-adv-x="782" d="M-315 -324q0 79 55.5 134t132.5 55q68 0 111 -39.5t43 -106.5q0 -43 -19 -81.5t-74 -92.5v-20q10 -4 28 -6.5t31 -2.5l13 -1q73 0 112.5 68t39.5 204v840l-158 84v102h215q261 0 399 115h45v-928q0 -103 -20 -190.5t-53 -150.5t-79.5 -113t-97.5 -82t-108 -53t-109 -29.5 t-104 -8.5q-185 0 -294 85t-109 218zM119 1208q0 104 73 177t177 73q103 0 175 -73t72 -177q0 -103 -72.5 -176.5t-174.5 -73.5q-104 0 -177 73.5t-73 176.5z" />
<glyph unicode="k" horiz-adv-x="1562" d="M0 1253v101h215q256 0 399 114h45v-956l363 379l-74 39v102h479v-102l-161 -84l-179 -176l386 -596v2l90 -39v-37h-596l-203 354l-105 -100v-178l91 -39v-37h-682v37l90 39v-2v1095z" />
<glyph unicode="l" horiz-adv-x="784" d="M0 1253v101h217q256 0 399 114h46v-1392l90 -39v-37h-682v37l90 39v-2v1095z" />
<glyph unicode="m" horiz-adv-x="2256" d="M18 711v102q57 0 109 12t86 28.5t60 33.5t37 29l12 12h79l27 -131h6q43 21 140 76.5t166 92t164 68t173 31.5q222 0 291 -162q130 75 239 118.5t210 43.5q90 0 154.5 -27t99 -75.5t50 -106t15.5 -127.5v-653l88 -39v-37h-590v649q0 69 -21 95t-81 26q-25 0 -59 -11 t-55 -21l-21 -11v-651l90 -39v-37h-2h-676v37l86 37v575q0 69 -21 95t-81 26q-35 0 -63 -10t-73 -33v-727h-587v37l86 37v563z" />
<glyph unicode="n" horiz-adv-x="1519" d="M18 711v102q57 0 109 12t86 28.5t60 33.5t37 29l12 12h79l25 -131h8q43 21 140 76.5t166 92t164 68t173 31.5q73 0 129 -18.5t91.5 -49t58.5 -74.5t32 -91t9 -103v-653l88 -39v-37h-590v649q0 69 -21 95t-81 26q-48 0 -136 -43v-653l91 -37v-37h-678v37l86 37v563z" />
<glyph unicode="o" horiz-adv-x="1464" d="M74 487q0 79 15.5 153t58.5 153.5t111.5 137.5t184.5 96t267 38q337 0 508.5 -139t171.5 -381q0 -79 -15.5 -153t-59 -153.5t-112 -137.5t-185 -96t-267.5 -38q-336 0 -507 139t-171 381zM594 547q0 -234 37.5 -337.5t122.5 -103.5q72 0 94 81.5t22 297.5 q0 233 -36.5 337t-116.5 104q-74 0 -98.5 -83t-24.5 -296z" />
<glyph unicode="p" horiz-adv-x="1529" d="M18 713v102q8 0 22.5 0.5t55 7t77 17t79 34.5t70.5 56h77l41 -217h29q10 36 34.5 79t68.5 92.5t99 89.5t133 66.5t163 26.5q103 0 190 -29.5t154.5 -88.5t106 -157t38.5 -225q0 -113 -36.5 -218t-105.5 -191.5t-182 -138.5t-253 -52q-57 0 -118.5 11.5t-96.5 31.5h-7 v-370l91 -39v-35h-682v35l90 39v999zM657 166q48 -29 123 -29q109 0 131.5 69.5t22.5 334.5q0 72 -2 116.5t-8.5 83.5t-19.5 59t-33 31t-50 11q-56 0 -94.5 -39t-54 -90.5t-15.5 -108.5v-438z" />
<glyph unicode="q" horiz-adv-x="1495" d="M74 487q0 90 21.5 173.5t67 158t111.5 129.5t161 87t208 32q137 0 239 -47.5t165 -130.5h6l190 145h129v-1169l160 -84v-103h-217q-259 0 -400 -112h-43v508h-6q-56 -49 -137 -78t-158 -29q-249 0 -373 138.5t-124 381.5zM596 494q0 -194 12 -248q16 -72 69 -88 q21 -6 50 -6q35 0 71 18t55 36l19 17v617q-53 30 -122 30q-36 0 -60.5 -6.5t-42 -25.5t-27.5 -43t-15.5 -71.5t-7 -97t-1.5 -132.5z" />
<glyph unicode="r" horiz-adv-x="1222" d="M18 711v102q8 0 22.5 0.5t55 7t77 17t79 34.5t70.5 56h79l43 -217h27q48 157 165.5 255.5t281.5 98.5q68 0 117.5 -21.5t74 -50t39 -70t17.5 -69t3 -59.5q0 -96 -60 -154.5t-142 -58.5q-79 0 -127.5 43.5t-48.5 114.5q0 64 40 130l-14 19q-77 -40 -117.5 -147.5 t-40.5 -254.5v-411l91 -39v-37h-678v37l84 39v561z" />
<glyph unicode="s" horiz-adv-x="1341" d="M74 0v358l84 23q89 -114 231 -201.5t285 -87.5q125 0 125 88q0 30 -40 55.5t-104 47t-141 44.5t-154.5 54t-141.5 70t-104 98.5t-40 132.5q0 171 143.5 277t400.5 106q227 0 394 -102h6l35 69h102v-344l-63 -14q-44 69 -96 118.5t-101.5 73.5t-90 34.5t-77.5 10.5 q-71 0 -113.5 -23t-42.5 -69q0 -33 38.5 -61t100 -49.5t135.5 -44t148.5 -52t136 -66t100 -92.5t38.5 -126q0 -79 -35.5 -143t-92 -103.5t-130.5 -66.5t-146 -37.5t-145 -10.5q-158 0 -307 36t-260 93l-41 -96h-37z" />
<glyph unicode="t" horiz-adv-x="937" d="M-18 928v104q7 0 19 1t49.5 9.5t76 23.5t92.5 47.5t103.5 77t105.5 116.5t102 161h132v-436h235v-192h-235v-301q0 -185 8 -257.5t35 -99.5q26 -26 112 -26q76 0 121 16v-127q-157 -80 -322 -80q-224 0 -349.5 118.5t-125.5 336.5v420z" />
<glyph unicode="u" horiz-adv-x="1521" d="M0 709v104q66 0 130 12t114.5 31.5t96 42.5t78 46.5t56.5 43t35 31.5l12 12h137v-430v-22q0 -80 0.5 -116.5t4 -91t11.5 -78t22 -50t36.5 -36t54.5 -9.5q69 0 109 43v790h502v-764l90 -53v-100q-55 0 -112 -12t-99 -28.5t-76 -33.5t-52 -29l-17 -12h-82v145h-7 q-70 -69 -192.5 -124.5t-235.5 -55.5q-224 0 -341 117.5t-117 337.5v201z" />
<glyph unicode="v" horiz-adv-x="1503" d="M0 930v102h801v-102l-92 -49l202 -430h7l219 432l-93 47v102h459v-102l-160 -84l-499 -846h-260l-426 846z" />
<glyph unicode="w" horiz-adv-x="2103" d="M33 711v102q11 0 29.5 0.5t73.5 7t106 17t115 34.5t112 56h215v-115q-88 -213 -88 -387q0 -126 29 -189t102 -63q83 0 107 58t24 221v360h399v-360q0 -9 -0.5 -40.5t-0.5 -47t2 -45t6 -46t12.5 -38.5t20.5 -33.5t30.5 -20t42.5 -8.5q43 0 71.5 19.5t43 58.5t19.5 83 t5 107q0 83 -27.5 213t-82.5 256v121h604v-104l-80 -45q107 -237 107 -396q0 -110 -32 -198.5t-86.5 -147.5t-129.5 -99t-158.5 -57.5t-175.5 -17.5q-70 0 -135 18t-115 47.5t-85 58.5t-64 61q-21 -25 -51.5 -52t-81 -59.5t-121.5 -53t-148 -20.5q-116 0 -216 28.5t-181 85 t-127.5 152t-46.5 220.5q0 65 41 215z" />
<glyph unicode="x" horiz-adv-x="1536" d="M0 0v37l90 37l414 370l-348 451l-125 35v2v100h731v-102l149 -195l162 160l-69 35v102h489v-102l-141 -35l-330 -305l395 -514l119 -39v-37h-750v76l-172 225l-219 -225l117 -39v-37h-512z" />
<glyph unicode="y" horiz-adv-x="1482" d="M0 932v100h793v-102l-84 -35l233 -412h6l205 412l-94 35v102h424v-102l-127 -35l-443 -895q-52 -105 -90.5 -172t-87 -129.5t-98.5 -96t-116 -53.5t-148 -20q-153 0 -238.5 74t-85.5 170q0 83 45.5 130.5t136.5 47.5q66 0 107 -38t41 -95q0 -47 -13 -79.5t-55 -72.5v-20 q20 -8 66 -8q28 0 52 3.5t45.5 15t37.5 21.5t34.5 33.5t31 40.5t32.5 53.5t32 60.5t36 73l-541 956z" />
<glyph unicode="z" horiz-adv-x="1255" d="M37 0v37l534 868h-30q-66 0 -118.5 -11t-83.5 -24.5t-60 -41.5t-40.5 -44.5t-33 -54t-29.5 -49.5h-98v352h1104v-104l-502 -801h78q50 0 91 4.5t69.5 10.5t53.5 19t39.5 23t30 29t23 30.5t21.5 35.5t22 36h92v-315h-1163z" />
<glyph unicode="{" horiz-adv-x="757" d="M0 627v100q59 0 96 21t51.5 60t17.5 85.5t-5.5 104.5t-18 110.5t-18 111.5t-8.5 99q0 52 25.5 92.5t74.5 67t109.5 45t141 28t158 13.5t171.5 4v-60q-63 -7 -108.5 -19t-74.5 -29t-46.5 -36.5t-24 -47t-7 -55.5t4 -67t10 -75.5t10 -87.5t4.5 -97q0 -66 -17.5 -118.5 t-43 -83.5t-57 -52t-58 -28.5t-47.5 -7.5h-25v-52h25q21 0 47.5 -7.5t58 -28.5t57 -52.5t43 -85t17.5 -119.5q0 -51 -5.5 -108.5t-12 -96t-9.5 -81t0 -70.5t18 -56t44 -46t77.5 -32.5t119.5 -23.5v-59q-94 0 -171.5 4t-158 13.5t-141 28t-109.5 45t-74.5 67t-25.5 92.5 q0 40 8.5 98.5t18 111t18 110.5t5.5 104.5t-17.5 85t-51.5 59.5t-96 21z" />
<glyph unicode="|" horiz-adv-x="444" d="M102 -37v1430h240v-1430h-240z" />
<glyph unicode="}" horiz-adv-x="757" d="M-37 -154q62 8 107.5 19.5t74.5 29t46 36.5t24 47t7 55.5t-4.5 66.5t-10 75.5t-10 87.5t-4.5 97q0 66 17.5 119.5t43 85t57.5 52.5t58 28.5t47 7.5h26v52h-26q-21 0 -47 7.5t-58 28.5t-57.5 52t-43 83.5t-17.5 118.5q0 46 4.5 97t10 87.5t10 75.5t4.5 67t-7 55.5t-24 47 t-46 36.5t-74.5 29t-107.5 19v60q94 0 171.5 -4t158 -13.5t141 -28t109.5 -45t74.5 -67t25.5 -92.5q0 -45 -11 -116.5t-23 -131.5t-15.5 -126t7 -112t49.5 -76t108 -30v-100q-69 0 -108 -30t-49.5 -75.5t-7 -111t15.5 -125.5t23 -131.5t11 -116.5q0 -52 -25.5 -92.5 t-74.5 -67t-109.5 -45t-141 -28t-158 -13.5t-171.5 -4v59z" />
<glyph unicode="~" horiz-adv-x="1169" d="M63 420q14 44 22 67.5t29 67.5t41.5 68.5t53.5 44.5t72 20q34 0 143 -18t168 -31q59 -14 166 -30.5t149 -16.5q20 0 35.5 3t25 5.5t21 12.5t15.5 13.5t17 19.5t17 20l66 -2q-12 -40 -21 -66.5t-29 -69t-40.5 -68t-53.5 -45.5t-71 -20q-35 0 -143 17.5t-168 31.5t-167 31 t-149 17q-20 0 -36 -3t-25.5 -6t-20.5 -12t-15.5 -13.5t-16.5 -19t-17 -20.5z" />
<glyph unicode="&#xa1;" horiz-adv-x="708" d="M74 209q0 71 14 140t35.5 129t43 120.5t39.5 137.5t23 157h250q5 -80 23.5 -157t40.5 -137.5t43 -120.5t35 -129t14 -140q0 -99 -79.5 -154t-201.5 -55q-123 0 -201.5 55t-78.5 154zM125 1210q0 77 54.5 129t174.5 52q119 0 174.5 -52t55.5 -129q0 -76 -55 -127t-175 -51 q-121 0 -175 50.5t-54 127.5z" />
<glyph unicode="&#xa2;" horiz-adv-x="1325" d="M74 502q0 154 74.5 277.5t199.5 194.5t283 87v170h217v-170q74 -7 132.5 -23.5t95.5 -35t63 -46t39 -48.5t19.5 -52t7.5 -46t1 -40q0 -116 -49 -181t-147 -65q-93 0 -134.5 46.5t-41.5 111.5q-1 32 8.5 63.5t23.5 54t28 40t24 26.5l10 8v27q0 1 -1.5 3t-9 6.5t-18 8 t-32.5 6.5t-50 3q-62 0 -96.5 -14.5t-69.5 -51.5q-67 -67 -67 -360q0 -78 7 -132t23.5 -87t26 -45.5t31.5 -34.5q57 -60 166 -60q30 0 57 2t48.5 4t44 7.5t36.5 9t33.5 12.5t29 13t28.5 15.5t25 15.5t26 18t26 18l59 -84q-32 -30 -59 -51t-78.5 -54.5t-119.5 -57t-146 -34.5 v-174h-217v170q-102 12 -195.5 48t-177 97.5t-134 160.5t-50.5 223z" />
<glyph unicode="&#xa3;" horiz-adv-x="1343" d="M18 0v59q59 19 111.5 51t97.5 79t71 114t26 146q0 60 -23 137h-283v151h238q-25 115 -25 185q0 101 38 182t100 133.5t146.5 88t173 50.5t183.5 15q92 0 167 -20.5t121.5 -53t78.5 -74t44.5 -80.5t12.5 -76q0 -80 -47 -132t-121 -52q-73 0 -117 47.5t-44 108.5 q0 43 27.5 89t62.5 69v20q-17 11 -50 17t-57 6h-24q-97 0 -156 -56.5t-59 -163.5q0 -42 3.5 -78t13.5 -71t15 -52t20.5 -55.5t18.5 -46.5h314v-151h-277q2 -14 2 -45q0 -7 -0.5 -20t-6 -51t-15 -74t-30 -81t-48.5 -79v-29h209q9 0 25 1t59.5 12.5t80.5 30.5t76.5 61.5 t59.5 99.5h94v-412h-1307z" />
<glyph unicode="&#xa5;" horiz-adv-x="1878" d="M41 1255v101h926v-101l-123 -73l272 -418h4l230 418l-121 73v101h608v-101l-160 -73l-278 -404h280v-151h-383l-86 -123v-2h469v-152h-469v-233l140 -58v-59h-803v59l137 58v233h-487v152h487v2l-88 123h-399v151h290l-290 404z" />
<glyph unicode="&#xa7;" horiz-adv-x="1703" d="M86 360q0 124 73 220t214 151q-80 93 -80 225q0 193 169 314t435 121q139 0 252 -30.5t187.5 -100.5t74.5 -170q0 -73 -41.5 -122.5t-112.5 -49.5q-59 0 -101 37.5t-42 95.5q0 8 2 22t19 45.5t47 50.5v7q-30 24 -89.5 38.5t-104.5 16.5l-44 2q-99 0 -156 -39t-57 -94 q0 -30 27.5 -60t77.5 -58.5t101 -52t116 -51.5l15 -6t13 -5.5t15 -6.5q37 -16 100 -41t98 -39.5t86.5 -39.5t80.5 -45.5t63 -52t52 -65t30 -78.5t12 -98q0 -123 -73 -219t-212 -151q78 -90 78 -226q0 -127 -77.5 -225.5t-215 -152.5t-313.5 -54q-138 0 -250.5 30t-187 100 t-74.5 171q0 74 40.5 122t112.5 48q59 0 100.5 -37t41.5 -94v-8.5t-3.5 -21t-9.5 -29.5t-19.5 -31t-31.5 -29v-8q29 -24 88 -38.5t104 -16.5l44 -2q98 0 155.5 38t57.5 93q0 69 -168 153q-42 21 -199 89q-39 17 -99.5 41.5t-97 39.5t-86.5 39.5t-80 45t-63.5 51.5 t-51.5 64.5t-30 78.5t-12 98zM487 500q0 -12 5 -24t15.5 -23t21.5 -20.5t30 -20t33 -17.5t38 -17.5t38 -15.5t40 -15.5t37 -14.5q28 -11 110.5 -43.5t117 -46.5t89 -38t93.5 -44q62 39 62 104q0 12 -5 24t-16 23t-22 20.5t-30 20t-34 18t-38.5 17t-38 15.5t-40 15.5 t-37.5 14.5q-26 10 -89 34.5t-93 36.5t-77 31t-82.5 35.5t-67.5 32.5q-60 -37 -60 -102z" />
<glyph unicode="&#xa8;" horiz-adv-x="1290" d="M264 1307q0 65 46 111t110 46q65 0 111.5 -46.5t46.5 -110.5t-46.5 -110t-111.5 -46q-64 0 -110 45.5t-46 110.5zM713 1307q0 65 45.5 111t111.5 46q64 0 110 -46t46 -111t-46 -110.5t-110 -45.5q-66 0 -111.5 45.5t-45.5 110.5z" />
<glyph unicode="&#xa9;" horiz-adv-x="1710" d="M86 739q0 208 103.5 385t280.5 280t386 103t385.5 -103t279.5 -279.5t103 -385.5t-103 -385.5t-279.5 -279.5t-385.5 -103t-386 103t-280.5 280t-103.5 385zM236 739q0 -126 49 -241t132 -198t198 -132t241 -49q125 0 239.5 49t197.5 132t132.5 198t49.5 241 q0 125 -49.5 239.5t-132.5 197.5t-197.5 132.5t-239.5 49.5q-126 0 -241 -49.5t-198 -132.5t-132 -197.5t-49 -239.5zM451 725q0 175 122.5 284t296.5 109q138 0 250 -86l37 68h82v-285v-8l-129 -16q-2 7 -6.5 19.5t-19.5 44t-32.5 55.5t-46 43.5t-59.5 19.5 q-153 0 -153 -244q0 -105 49 -160t114 -55q32 0 74.5 11.5t72.5 23.5t68.5 29t45.5 20l26 -100q-5 -6 -14.5 -15.5t-41.5 -34t-68.5 -43t-95 -34t-120.5 -15.5q-209 0 -330.5 91t-121.5 278z" />
<glyph unicode="&#xaa;" horiz-adv-x="786" d="M61 815q0 86 78 127q52 28 212 61q49 11 59 13v24q0 63 -24 91t-75 28q-48 0 -67 -8v-8q26 -26 26 -60q0 -27 -19 -47t-52 -20q-35 0 -60.5 21t-25.5 63q0 60 57 94.5t178 34.5q70 0 120.5 -7t96.5 -26t70 -57t24 -95v-299l46 -20v-18q-56 -27 -130 -27q-125 0 -157 68 h-4q-33 -28 -86.5 -48t-100.5 -20q-79 0 -122.5 35t-43.5 100zM274 834q0 -60 58 -60q34 0 78 31v145q-80 -27 -108 -50t-28 -66z" />
<glyph unicode="&#xab;" horiz-adv-x="1388" d="M63 418v143l558 420l49 -121q-199 -316 -203 -346v-49q2 -25 203 -346l-49 -119zM719 418v143l557 420l47 -121q-199 -316 -203 -346v-49q2 -25 203 -346l-47 -119z" />
<glyph unicode="&#xad;" horiz-adv-x="645" d="M86 414v204h473v-204h-473z" />
<glyph unicode="&#xae;" horiz-adv-x="1120" d="M86 909q0 195 139.5 334t335.5 139q128 0 237 -63.5t172.5 -172.5t63.5 -237q0 -196 -139 -335.5t-334 -139.5q-97 0 -184.5 37.5t-151.5 101.5t-101.5 151.5t-37.5 184.5zM178 909q0 -158 112.5 -270.5t270.5 -112.5q157 0 269 112.5t112 270.5q0 157 -112 269t-269 112 q-158 0 -270.5 -112t-112.5 -269zM352 690v453h256q94 0 145.5 -39.5t51.5 -104.5q0 -77 -88 -122v-3q42 -22 73 -75.5t31 -108.5h-149q-5 24 -6.5 33t-7.5 31.5t-11.5 32.5t-16 26t-22.5 23.5t-29.5 13.5t-39.5 6h-43v-166h-144zM496 926h98q36 0 50.5 19t14.5 59 q0 31 -17.5 50t-47.5 19h-98v-147z" />
<glyph unicode="&#xaf;" horiz-adv-x="1290" d="M270 1182v188h750v-188h-750z" />
<glyph unicode="&#xb0;" horiz-adv-x="763" d="M86 989v373q67 108 295 108t295 -108v-373q-67 -108 -295 -108t-295 108zM268 1079q61 -16 113 -16t113 16v193q-46 16 -113 16t-113 -16v-193z" />
<glyph unicode="&#xb4;" horiz-adv-x="1325" d="M616 1151v55q92 36 138 79t77 104q19 35 31.5 54.5t35.5 44.5t52 36.5t66 11.5q64 0 101.5 -37t37.5 -96q0 -32 -12 -60t-29.5 -48.5t-47 -39t-55 -30.5t-64 -24.5t-63.5 -19t-63.5 -16.5t-54.5 -14h-150z" />
<glyph unicode="&#xb5;" horiz-adv-x="1519" d="M63 -418q0 58 14.5 120.5t32 120.5t32 195t14.5 324v690h501v-430q0 -183 8 -258t35 -102q37 -37 97 -37q61 0 98 37v790h502v-934l90 -39v-36q-51 -24 -116 -37.5t-105 -15.5l-39 -1q-257 0 -316 133q-77 -63 -164 -98t-215 -35q-51 0 -88 11q13 -104 44.5 -217.5 t31.5 -180.5q0 -99 -66 -154t-163 -55q-96 0 -162 55.5t-66 153.5z" />
<glyph unicode="&#xb6;" horiz-adv-x="1335" d="M74 905q0 216 150.5 333.5t437.5 117.5h641v-101l-138 -73v-1270l138 -59v-60h-332v1389h-140v-1389h-331v60l137 59v520q-263 0 -413 134t-150 339z" />
<glyph unicode="&#xb7;" horiz-adv-x="493" d="M86 401v230q12 20 56.5 32.5t105.5 12.5q59 0 103.5 -12.5t56.5 -32.5v-230q-12 -19 -57 -32t-103 -13q-60 0 -105 13t-57 32z" />
<glyph unicode="&#xb8;" horiz-adv-x="1290" d="M336 -362h174q156 0 156 86q0 73 -121 73q-50 -2 -101 -12l-14 14l70 254h237l-45 -162q291 0 291 -159q0 -88 -88.5 -137.5t-253.5 -49.5q-182 0 -305 33v60z" />
<glyph unicode="&#xba;" horiz-adv-x="800" d="M61 938q0 39 7.5 76t29.5 77t56 69t92 48t133 19q167 0 253.5 -69.5t86.5 -190.5q0 -39 -8 -76t-30 -77t-56 -69t-92.5 -48t-133.5 -19q-167 0 -252.5 69.5t-85.5 190.5zM322 969q0 -117 19 -169t60 -52q36 0 47 41t11 149q0 116 -18 167.5t-58 51.5q-37 0 -49 -41 t-12 -147z" />
<glyph unicode="&#xbb;" horiz-adv-x="1388" d="M63 119q90 143 141 229.5t56 101.5l6 15v49q0 28 -203 346l50 121l557 -420v-143l-557 -418zM719 119q89 143 140 229.5t57 101.5l6 15v49q-2 28 -203 346l47 121l557 -420v-143l-557 -418z" />
<glyph unicode="&#xbf;" horiz-adv-x="1335" d="M72 420q0 64 25 115t64.5 84t87.5 60t96 48.5t87.5 44t64.5 53t25 68.5v27h379v-27q0 -58 -23 -101.5t-57 -68t-74.5 -53.5t-74.5 -57.5t-57 -82t-23 -124.5q0 -109 60.5 -170.5t178.5 -61.5q114 0 175 39v25q-78 25 -120 82t-42 116q0 86 51.5 136.5t142.5 50.5 q95 0 158.5 -64t63.5 -174q0 -59 -17.5 -112.5t-59 -104t-105 -87.5t-162 -59t-222.5 -22q-131 0 -237.5 23.5t-177 63t-118 94t-68.5 114t-21 125.5zM485 1208q0 77 54.5 129t173.5 52q120 0 174.5 -52t54.5 -129t-54 -127.5t-175 -50.5q-120 0 -174 51t-54 127z" />
<glyph unicode="&#xc0;" d="M41 0v59l137 60l572 1237h409l572 -1237l139 -60v-59h-858v59l139 60v-2l-86 186h-537l-75 -184l137 -60v-59h-549zM600 1726q0 59 37.5 96.5t101.5 37.5q37 0 66 -11.5t52 -37t35.5 -44.5t31.5 -55q31 -60 76.5 -103t138.5 -79v-55h-150q-16 4 -63 15.5t-74.5 20 t-71.5 23t-70.5 31.5t-54.5 40t-41.5 54t-13.5 67zM610 506h361l-189 414h-6z" />
<glyph unicode="&#xc1;" d="M41 0v59l137 60l572 1237h409l572 -1237l139 -60v-59h-858v59l139 60v-2l-86 186h-537l-75 -184l137 -60v-59h-549zM610 506h361l-189 414h-6zM786 1475v55q93 36 138.5 79t76.5 103q19 36 31.5 55t35.5 44.5t52 37t66 11.5q64 0 101.5 -37.5t37.5 -96.5q0 -36 -13.5 -67 t-41.5 -54t-54.5 -40t-70.5 -31.5t-71.5 -23t-74.5 -20t-63 -15.5h-150z" />
<glyph unicode="&#xc2;" d="M41 0v59l137 60l572 1237h409l572 -1237l139 -60v-59h-858v59l139 60v-2l-86 186h-537l-75 -184l137 -60v-59h-549zM578 1489l139 235q20 32 42 46t70 14h250q47 0 70 -14t43 -46q20 -36 139 -235l-121 -49q-96 78 -159 122.5t-78 49.5l-15 6h-6q-5 -1 -18 -7 t-77.5 -50.5t-158.5 -120.5zM610 506h361l-189 414h-6z" />
<glyph unicode="&#xc3;" d="M41 0v59l137 60l572 1237h409l572 -1237l139 -60v-59h-858v59l139 60v-2l-86 186h-537l-75 -184l137 -60v-59h-549zM561 1468q10 32 15 46.5t18 48.5t23 52t28 44.5t36.5 40.5t43.5 24.5t53 10.5q17 0 41 -3.5t41.5 -7.5t51.5 -12l51 -12q13 -3 41 -10t41 -10t34 -7.5 t37.5 -6t32.5 -1.5q24 0 40.5 2.5t30.5 12t20 14t20.5 22t19.5 23.5l68 -2q-11 -33 -15 -46t-17.5 -48t-24 -52.5t-28.5 -44.5t-36.5 -41t-43.5 -24.5t-53 -10.5q-17 0 -40.5 3.5t-41.5 7.5t-51 12t-51 12q-13 3 -41 10t-41 10t-34 7.5t-37.5 6t-32.5 1.5q-20 0 -36 -3 t-25.5 -6t-20.5 -12t-15.5 -13.5t-16.5 -19t-17 -20.5zM610 506h361l-189 414h-6z" />
<glyph unicode="&#xc4;" d="M41 0v59l137 60l572 1237h409l572 -1237l139 -60v-59h-858v59l139 60v-2l-86 186h-537l-75 -184l137 -60v-59h-549zM573 1630q0 65 46 111.5t110 46.5q65 0 111.5 -47t46.5 -111t-46.5 -109.5t-111.5 -45.5t-110.5 45.5t-45.5 109.5zM610 506h361l-189 414h-6zM1022 1630 q0 65 46 111.5t112 46.5q64 0 109.5 -46.5t45.5 -111.5q0 -64 -45.5 -109.5t-109.5 -45.5q-66 0 -112 45t-46 110z" />
<glyph unicode="&#xc5;" d="M41 0v59l137 60l572 1237h409l572 -1237l139 -60v-59h-858v59l139 60v-2l-86 186h-537l-75 -184l137 -60v-59h-549zM610 506h361l-189 414h-6zM745 1686q0 86 61.5 147t147.5 61q88 0 149.5 -61t61.5 -147q0 -88 -61.5 -149.5t-149.5 -61.5q-86 0 -147.5 61.5 t-61.5 149.5zM856 1686q0 -42 28.5 -71.5t69.5 -29.5t71 30t30 71t-29.5 69.5t-71.5 28.5q-41 0 -69.5 -28.5t-28.5 -69.5z" />
<glyph unicode="&#xc6;" horiz-adv-x="2406" d="M18 0v59l138 60l972 1050v13l-139 73v101h1356v-404l-141 -24l-80 223h-469v-369h219l59 138h86v-486h-86l-59 139l2 2h-221v-368h510l82 225l141 -29v-403h-541h-858v59l139 60v184h-538l-160 -184l137 -60v-59h-549zM766 506h362v412z" />
<glyph unicode="&#xc7;" horiz-adv-x="1632" d="M86 653q0 162 62 301t167.5 234t246.5 149t298 54q261 0 469 -160h6l64 125h147v-537l-192 -28q-32 109 -80 191.5t-101 128.5t-105 68.5t-101 22.5q-155 0 -241.5 -138t-86.5 -402q0 -122 32.5 -218.5t86 -153t118 -85.5t134.5 -29q43 0 86 5.5t87 17.5t76.5 21.5 t76.5 28.5t63 27.5t60 29t46 22.5l54 -99q-100 -107 -246.5 -172.5t-311.5 -83.5l-22 -82q289 0 289 -159q0 -88 -87.5 -137.5t-252.5 -49.5q-182 0 -307 33v60h176q153 0 153 86q0 73 -119 73q-49 -2 -102 -12l-14 14l49 174q-118 11 -218.5 41.5t-186 86t-145.5 132 t-94 183.5t-34 237z" />
<glyph unicode="&#xc8;" horiz-adv-x="1480" d="M61 0v59l138 60v1063l-138 73v101h1354v-404l-139 -24l-82 223h-467v-369h219l60 138h86v-486h-86l-60 139l2 2h-221v-368h508l84 225l141 -29v-403h-1399zM406 1726q0 59 37.5 96.5t101.5 37.5q37 0 66 -11.5t51.5 -37t34.5 -44.5t32 -55q31 -60 76.5 -103t138.5 -79 v-55h-149q-16 4 -63 15.5t-74.5 20t-71.5 23t-70.5 31.5t-54.5 40t-41.5 54t-13.5 67z" />
<glyph unicode="&#xc9;" horiz-adv-x="1480" d="M61 0v59l138 60v1063l-138 73v101h1354v-404l-139 -24l-82 223h-467v-369h219l60 138h86v-486h-86l-60 139l2 2h-221v-368h508l84 225l141 -29v-403h-1399zM598 1475v55q93 36 138.5 79t76.5 103q20 36 32 55t34.5 44.5t51.5 37t66 11.5q65 0 102.5 -38t37.5 -96 q0 -36 -13.5 -67t-41.5 -54t-54.5 -40t-70.5 -31.5t-71.5 -23t-74.5 -20t-63 -15.5h-150z" />
<glyph unicode="&#xca;" horiz-adv-x="1480" d="M61 0v59l138 60v1063l-138 73v101h1354v-404l-139 -24l-82 223h-467v-369h219l60 138h86v-486h-86l-60 139l2 2h-221v-368h508l84 225l141 -29v-403h-1399zM383 1489l139 235q20 32 42.5 46t70.5 14h250q47 0 69.5 -14t42.5 -46q21 -36 140 -235l-121 -49 q-96 78 -159 122.5t-78 49.5l-15 6h-6q-5 -1 -18 -7t-77.5 -50.5t-158.5 -120.5z" />
<glyph unicode="&#xcb;" horiz-adv-x="1480" d="M61 0v59l138 60v1063l-138 73v101h1354v-404l-139 -24l-82 223h-467v-369h219l60 138h86v-486h-86l-60 139l2 2h-221v-368h508l84 225l141 -29v-403h-1399zM379 1630q0 65 46 111.5t110 46.5t110.5 -46.5t46.5 -111.5q0 -64 -46 -109.5t-111 -45.5t-110.5 45.5 t-45.5 109.5zM827 1630q0 65 46 111.5t112 46.5q64 0 110 -46.5t46 -111.5q0 -64 -45.5 -109.5t-110.5 -45.5q-66 0 -112 45t-46 110z" />
<glyph unicode="&#xcc;" horiz-adv-x="925" d="M61 0v59l138 58v1065l-138 73v101h803v-101l-137 -73v-1065l137 -58v-59h-803zM109 1726q0 59 37.5 96.5t101.5 37.5q37 0 66 -11.5t51.5 -37t34.5 -44.5t32 -55q31 -60 76.5 -103t138.5 -79v-55h-149q-16 4 -63 15.5t-74.5 20t-71.5 23t-70.5 31.5t-54.5 40t-41.5 54 t-13.5 67z" />
<glyph unicode="&#xcd;" horiz-adv-x="925" d="M61 0v59l138 58v1065l-138 73v101h803v-101l-137 -73v-1065l137 -58v-59h-803zM295 1475v55q93 36 138.5 79t76.5 103q20 36 32 55t34.5 44.5t51.5 37t66 11.5q64 0 102 -38t38 -96q0 -36 -13.5 -67t-41.5 -54t-55 -40t-71 -31.5t-71.5 -23t-74.5 -20t-63 -15.5h-149z " />
<glyph unicode="&#xce;" horiz-adv-x="925" d="M61 0v59l138 58v1065l-138 73v101h803v-101l-137 -73v-1065l137 -58v-59h-803zM86 1489l139 235q20 32 42.5 46t70.5 14h250q47 0 69.5 -14t42.5 -46q21 -36 140 -235l-121 -49q-96 78 -159 122.5t-78 49.5l-15 6h-6q-5 -1 -18 -7t-77.5 -50.5t-158.5 -120.5z" />
<glyph unicode="&#xcf;" horiz-adv-x="925" d="M61 0v59l138 58v1065l-138 73v101h803v-101l-137 -73v-1065l137 -58v-59h-803zM82 1630q0 65 46 111.5t110 46.5t110.5 -46.5t46.5 -111.5q0 -64 -46 -109.5t-111 -45.5t-110.5 45.5t-45.5 109.5zM530 1630q0 65 46 111.5t112 46.5q64 0 110 -46.5t46 -111.5 q0 -64 -45.5 -109.5t-110.5 -45.5q-66 0 -112 45t-46 110z" />
<glyph unicode="&#xd0;" d="M39 0v59l137 60v456h-119v207h119v400l-137 73v101h940q423 0 634.5 -179t211.5 -495q0 -149 -43 -273.5t-126 -215.5t-211.5 -142t-291.5 -51h-1114zM705 195h290q121 0 195 128.5t74 366.5q0 55 -5.5 105t-19 104.5t-39.5 97.5t-63 79t-94 55.5t-128 19.5h-210v-369 h231v-207h-231v-380z" />
<glyph unicode="&#xd1;" horiz-adv-x="1863" d="M61 0v59l138 60v1063l-138 73v101h693l667 -883h6v709l-139 73v101h514v-101l-137 -73v-1182h-526l-695 913h-6v-794l137 -60v-59h-514zM690 1468q10 32 15 46.5t18 48.5t23 52t28 44.5t36.5 40.5t43.5 24.5t53 10.5q17 0 41 -3.5t41.5 -7.5t51.5 -12l51 -12 q13 -3 41 -10t41 -10t34 -7.5t37.5 -6t32.5 -1.5q24 0 40.5 2.5t30.5 12t20 14t20.5 22t19.5 23.5l68 -2q-11 -35 -15 -46.5t-17.5 -47.5t-23.5 -52.5t-28.5 -44.5t-36.5 -41t-43 -24t-53 -11q-17 0 -41 3.5t-41.5 7.5t-51.5 12l-51 12q-13 3 -41 10t-41 10t-34 7.5t-37.5 6 t-32.5 1.5q-20 0 -36 -3t-25.5 -6t-20.5 -12t-15.5 -13.5t-16.5 -19t-17 -20.5z" />
<glyph unicode="&#xd2;" horiz-adv-x="1835" d="M86 678q0 129 46 243.5t126.5 199t186 146.5t227.5 93t248 31q125 0 246.5 -31t226.5 -93t184.5 -146.5t125.5 -199t46 -243.5q0 -179 -62.5 -316t-176.5 -222.5t-267.5 -129t-341.5 -43.5q-186 0 -335 44.5t-256.5 131.5t-165.5 223t-58 312zM500 1726q0 59 37.5 96.5 t101.5 37.5q37 0 66 -11.5t51.5 -37t34.5 -44.5t32 -55q31 -60 76.5 -103t138.5 -79v-55h-149q-16 4 -63 15.5t-74.5 20t-71.5 23t-70.5 31.5t-54.5 40t-41.5 54t-13.5 67zM639 662q0 -488 281 -488q276 0 276 488q0 113 -6.5 193t-24.5 149t-49 110.5t-79.5 64.5t-116.5 23 q-69 0 -118 -23t-80.5 -64.5t-50 -110.5t-25.5 -149.5t-7 -192.5z" />
<glyph unicode="&#xd3;" horiz-adv-x="1835" d="M86 678q0 129 46 243.5t126.5 199t186 146.5t227.5 93t248 31q125 0 246.5 -31t226.5 -93t184.5 -146.5t125.5 -199t46 -243.5q0 -179 -62.5 -316t-176.5 -222.5t-267.5 -129t-341.5 -43.5q-186 0 -335 44.5t-256.5 131.5t-165.5 223t-58 312zM639 662q0 -488 281 -488 q276 0 276 488q0 113 -6.5 193t-24.5 149t-49 110.5t-79.5 64.5t-116.5 23q-69 0 -118 -23t-80.5 -64.5t-50 -110.5t-25.5 -149.5t-7 -192.5zM791 1475v55q93 36 138.5 79t76.5 103q20 36 32 55t34.5 44.5t51.5 37t66 11.5q64 0 101.5 -37.5t37.5 -96.5q0 -36 -13.5 -67 t-41.5 -54t-54.5 -40t-70.5 -31.5t-71.5 -23t-74.5 -20t-63 -15.5h-149z" />
<glyph unicode="&#xd4;" horiz-adv-x="1835" d="M86 678q0 129 46 243.5t126.5 199t186 146.5t227.5 93t248 31q125 0 246.5 -31t226.5 -93t184.5 -146.5t125.5 -199t46 -243.5q0 -179 -62.5 -316t-176.5 -222.5t-267.5 -129t-341.5 -43.5q-186 0 -335 44.5t-256.5 131.5t-165.5 223t-58 312zM551 1489l139 235 q20 32 42.5 46t70.5 14h250q47 0 69.5 -14t42.5 -46q21 -36 140 -235l-121 -49q-96 78 -159 122.5t-78 49.5l-15 6h-6q-5 -1 -18 -7t-77.5 -50.5t-158.5 -120.5zM639 662q0 -488 281 -488q276 0 276 488q0 113 -6.5 193t-24.5 149t-49 110.5t-79.5 64.5t-116.5 23 q-69 0 -118 -23t-80.5 -64.5t-50 -110.5t-25.5 -149.5t-7 -192.5z" />
<glyph unicode="&#xd5;" horiz-adv-x="1835" d="M86 678q0 129 46 243.5t126.5 199t186 146.5t227.5 93t248 31q125 0 246.5 -31t226.5 -93t184.5 -146.5t125.5 -199t46 -243.5q0 -179 -62.5 -316t-176.5 -222.5t-267.5 -129t-341.5 -43.5q-186 0 -335 44.5t-256.5 131.5t-165.5 223t-58 312zM535 1468q10 32 15 46.5 t18 48.5t23 52t28 44.5t36.5 40.5t43.5 24.5t53 10.5q17 0 40.5 -3.5t41.5 -7.5t51 -12t51 -12q13 -3 41 -10t41 -10t34 -7.5t37.5 -6t32.5 -1.5q24 0 40.5 2.5t30.5 12t20 14t20.5 22t19.5 23.5l68 -2q-11 -35 -15 -46.5t-17.5 -47.5t-23.5 -52.5t-28.5 -44.5t-36.5 -41 t-43 -24t-53 -11q-17 0 -40.5 3.5t-41.5 7.5t-51 12t-51 12q-12 3 -41 10.5t-41.5 10t-34 7t-38 6t-32.5 1.5q-20 0 -36 -3t-25.5 -6t-20.5 -12t-15.5 -13.5t-16.5 -19t-17 -20.5zM639 662q0 -488 281 -488q276 0 276 488q0 113 -6.5 193t-24.5 149t-49 110.5t-79.5 64.5 t-116.5 23q-69 0 -118 -23t-80.5 -64.5t-50 -110.5t-25.5 -149.5t-7 -192.5z" />
<glyph unicode="&#xd6;" horiz-adv-x="1835" d="M86 678q0 129 46 243.5t126.5 199t186 146.5t227.5 93t248 31q125 0 246.5 -31t226.5 -93t184.5 -146.5t125.5 -199t46 -243.5q0 -179 -62.5 -316t-176.5 -222.5t-267.5 -129t-341.5 -43.5q-186 0 -335 44.5t-256.5 131.5t-165.5 223t-58 312zM547 1630q0 65 45.5 111.5 t109.5 46.5t111 -47t47 -111t-46.5 -109.5t-111.5 -45.5q-64 0 -109.5 45.5t-45.5 109.5zM639 662q0 -488 281 -488q276 0 276 488q0 113 -6.5 193t-24.5 149t-49 110.5t-79.5 64.5t-116.5 23q-69 0 -118 -23t-80.5 -64.5t-50 -110.5t-25.5 -149.5t-7 -192.5zM995 1630 q0 65 46 111.5t112 46.5q64 0 110 -46.5t46 -111.5q0 -64 -45.5 -109.5t-110.5 -45.5q-66 0 -112 45t-46 110z" />
<glyph unicode="&#xd7;" horiz-adv-x="921" d="M123 324l192 192l-192 193l145 145l193 -192l192 192l146 -145l-193 -193l193 -192l-146 -146l-192 193l-193 -193z" />
<glyph unicode="&#xd8;" horiz-adv-x="1835" d="M86 678q0 129 46 243.5t126.5 199t186 146.5t227.5 93t248 31q266 0 483 -129l96 94h240l-201 -197q211 -198 211 -481q0 -179 -62.5 -316t-176.5 -222.5t-267.5 -129t-341.5 -43.5q-283 0 -475 101l-70 -68h-239l168 166q-199 183 -199 512zM639 662q0 -80 6 -144 l514 504q-28 91 -85.5 135.5t-153.5 44.5q-69 0 -118 -23t-80.5 -64.5t-50 -110.5t-25.5 -149.5t-7 -192.5zM692 330q69 -156 228 -156q276 0 276 488q0 63 -4 157z" />
<glyph unicode="&#xd9;" horiz-adv-x="1683" d="M41 1255v101h805v-101l-139 -73v-684q0 -90 25 -156t67.5 -101t89 -51t98.5 -16t99 16t89.5 51t67.5 101t25 156v684l-140 73v101h514v-101l-137 -73v-588q0 -162 -47 -283t-135 -196t-208 -111.5t-273 -36.5q-317 0 -490.5 154t-173.5 473v588zM563 1726q0 59 37.5 96.5 t101.5 37.5q37 0 66 -11.5t52 -37t35.5 -44.5t31.5 -55q31 -60 76.5 -103t138.5 -79v-55h-150q-16 4 -63 15.5t-74.5 20t-71.5 23t-70.5 31.5t-54.5 40t-41.5 54t-13.5 67z" />
<glyph unicode="&#xda;" horiz-adv-x="1683" d="M41 1255v101h805v-101l-139 -73v-684q0 -90 25 -156t67.5 -101t89 -51t98.5 -16t99 16t89.5 51t67.5 101t25 156v684l-140 73v101h514v-101l-137 -73v-588q0 -162 -47 -283t-135 -196t-208 -111.5t-273 -36.5q-317 0 -490.5 154t-173.5 473v588zM907 1475v55 q93 36 138.5 79t76.5 103q19 36 31.5 55t35.5 44.5t52 37t66 11.5q64 0 101.5 -37.5t37.5 -96.5q0 -36 -13.5 -67t-41.5 -54t-54.5 -40t-70.5 -31.5t-71.5 -23t-74.5 -20t-63 -15.5h-150z" />
<glyph unicode="&#xdb;" horiz-adv-x="1683" d="M41 1255v101h805v-101l-139 -73v-684q0 -90 25 -156t67.5 -101t89 -51t98.5 -16t99 16t89.5 51t67.5 101t25 156v684l-140 73v101h514v-101l-137 -73v-588q0 -162 -47 -283t-135 -196t-208 -111.5t-273 -36.5q-317 0 -490.5 154t-173.5 473v588zM608 1489l140 235 q20 32 42 46t70 14h250q47 0 70 -14t43 -46q20 -36 139 -235l-121 -49q-96 78 -159 122.5t-78 49.5l-15 6h-6q-5 -1 -18 -7t-77.5 -50.5t-158.5 -120.5z" />
<glyph unicode="&#xdc;" horiz-adv-x="1703" d="M61 1255v101h805v-101l-139 -73v-684q0 -90 25 -156t67.5 -101t89.5 -51t99 -16t98.5 16t89 51t67.5 101t25 156v684l-139 73v101h514v-101l-137 -73v-588q0 -162 -47 -283t-135 -196t-208.5 -111.5t-273.5 -36.5q-317 0 -490 154t-173 473v588zM625 1630 q0 65 45.5 111.5t109.5 46.5t111 -47t47 -111t-46.5 -109.5t-111.5 -45.5q-64 0 -109.5 45.5t-45.5 109.5zM1073 1630q0 65 46 111.5t112 46.5q64 0 109.5 -46.5t45.5 -111.5q0 -64 -45 -109.5t-110 -45.5q-66 0 -112 45t-46 110z" />
<glyph unicode="&#xdd;" horiz-adv-x="1878" d="M41 1255v101h926v-101l-123 -73l272 -418h4l230 418l-121 73v101h608v-101l-160 -73l-465 -678v-387l140 -58v-59h-805v59l137 58v387l-487 678zM997 1475v55q93 36 138.5 79t76.5 103q19 36 31.5 55t35.5 44.5t52 37t66 11.5q64 0 101.5 -37.5t37.5 -96.5 q0 -36 -13.5 -67t-41.5 -54t-54.5 -40t-70.5 -31.5t-71.5 -23t-74.5 -20t-63 -15.5h-150z" />
<glyph unicode="&#xde;" horiz-adv-x="1724" d="M18 0v59l138 58v1065l-138 73v101h803v-101l-137 -73v-49h379q288 0 438 -118t150 -335q0 -205 -150.5 -339t-413.5 -134q-97 0 -403 69v-159l137 -58v-59h-803zM684 481h238q110 0 156 47.5t46 161.5q0 112 -54 174t-148 62h-238v-445z" />
<glyph unicode="&#xdf;" horiz-adv-x="1519" d="M66 0v37l90 39v997q0 117 35 210t94.5 153t143.5 99.5t175.5 56t196.5 16.5q117 0 212.5 -17t179 -56.5t130.5 -113.5t47 -178q0 -215 -209 -305q131 -55 208 -163t77 -273q0 -115 -40 -205t-103.5 -144.5t-150.5 -90t-172.5 -49t-178.5 -13.5v94q81 31 113 118.5 t32 289.5q0 100 -10 168t-31 108t-44 61.5t-60 39.5v125q70 0 107.5 63.5t37.5 175.5t-37.5 176t-107.5 64q-144 0 -144 -228v-1255h-591z" />
<glyph unicode="&#xe0;" horiz-adv-x="1374" d="M55 238q0 149 114 228q89 61 314 114q5 2 267 59v49q0 125 -47.5 182.5t-149.5 57.5q-94 0 -135 -17v-16q17 -19 26 -31.5t19 -38t10 -51.5q0 -53 -39 -94t-104 -41q-72 0 -123 41.5t-51 128.5q0 120 115.5 189t357.5 69q90 0 162.5 -5.5t146 -20t127 -41t96.5 -66.5 t65.5 -99.5t22.5 -136.5l2 -600l90 -39v-36q-13 -6 -36 -15t-91.5 -24t-132.5 -15q-256 0 -315 133h-6q-66 -57 -172 -95t-201 -38q-160 0 -246 69.5t-86 199.5zM383 1403q0 59 37.5 96t101.5 37q37 0 66 -11.5t52 -36.5t35.5 -44.5t31.5 -54.5q31 -61 77 -104t138 -79v-55 h-150q-16 4 -54.5 14t-63.5 16.5t-63.5 19t-64 24.5t-55 30.5t-47 39t-29.5 48.5t-12 60zM479 276q0 -63 28 -91.5t89 -28.5q67 0 154 63v291q-161 -55 -216 -101.5t-55 -132.5z" />
<glyph unicode="&#xe1;" horiz-adv-x="1374" d="M55 238q0 149 114 228q89 61 314 114q5 2 267 59v49q0 125 -47.5 182.5t-149.5 57.5q-94 0 -135 -17v-16q17 -19 26 -31.5t19 -38t10 -51.5q0 -53 -39 -94t-104 -41q-72 0 -123 41.5t-51 128.5q0 120 115.5 189t357.5 69q90 0 162.5 -5.5t146 -20t127 -41t96.5 -66.5 t65.5 -99.5t22.5 -136.5l2 -600l90 -39v-36q-13 -6 -36 -15t-91.5 -24t-132.5 -15q-256 0 -315 133h-6q-66 -57 -172 -95t-201 -38q-160 0 -246 69.5t-86 199.5zM479 276q0 -63 28 -91.5t89 -28.5q67 0 154 63v291q-161 -55 -216 -101.5t-55 -132.5zM553 1151v55 q92 36 138 79t77 104q19 36 31.5 55t35 44t51.5 36.5t66 11.5q65 0 102.5 -37.5t37.5 -95.5q0 -32 -12 -60t-29.5 -48.5t-47 -39t-55.5 -30.5t-64 -24.5t-63.5 -19t-64 -16t-54.5 -14.5h-149z" />
<glyph unicode="&#xe2;" horiz-adv-x="1374" d="M55 238q0 149 114 228q89 61 314 114q5 2 267 59v49q0 125 -47.5 182.5t-149.5 57.5q-94 0 -135 -17v-16q17 -19 26 -31.5t19 -38t10 -51.5q0 -53 -39 -94t-104 -41q-72 0 -123 41.5t-51 128.5q0 120 115.5 189t357.5 69q90 0 162.5 -5.5t146 -20t127 -41t96.5 -66.5 t65.5 -99.5t22.5 -136.5l2 -600l90 -39v-36q-13 -6 -36 -15t-91.5 -24t-132.5 -15q-256 0 -315 133h-6q-66 -57 -172 -95t-201 -38q-160 0 -246 69.5t-86 199.5zM311 1165l140 236q20 32 42 45.5t70 13.5h250q47 0 70.5 -14t42.5 -45q20 -37 139 -236l-121 -49 q-96 78 -159 122.5t-78 49.5l-15 6h-6q-5 -1 -18 -7t-77.5 -50.5t-158.5 -120.5zM479 276q0 -63 28 -91.5t89 -28.5q67 0 154 63v291q-161 -55 -216 -101.5t-55 -132.5z" />
<glyph unicode="&#xe3;" horiz-adv-x="1374" d="M55 238q0 149 114 228q89 61 314 114q5 2 267 59v49q0 125 -47.5 182.5t-149.5 57.5q-94 0 -135 -17v-16q17 -19 26 -31.5t19 -38t10 -51.5q0 -53 -39 -94t-104 -41q-72 0 -123 41.5t-51 128.5q0 120 115.5 189t357.5 69q90 0 162.5 -5.5t146 -20t127 -41t96.5 -66.5 t65.5 -99.5t22.5 -136.5l2 -600l90 -39v-36q-13 -6 -36 -15t-91.5 -24t-132.5 -15q-256 0 -315 133h-6q-66 -57 -172 -95t-201 -38q-160 0 -246 69.5t-86 199.5zM313 1145q12 37 18 55t21.5 56t30.5 60t37 47t50 36.5t60 11.5q17 0 41 -3.5t41.5 -7.5t51.5 -12l51 -12 q13 -3 41 -10t41 -10t34 -7.5t37.5 -6t32.5 -1.5q24 0 40.5 2.5t30.5 12t20 14t20.5 22t19.5 23.5l68 -2q-9 -28 -11.5 -35t-13 -36.5t-16 -41t-18 -37.5t-22.5 -37.5t-26 -30t-32 -27t-36 -15t-42 -6.5q-17 0 -41 3.5t-41.5 7.5t-51.5 12l-51 12q-13 3 -41 10t-41 10 t-34 7.5t-37.5 6t-32.5 1.5q-20 0 -36 -3t-25.5 -6t-20.5 -12t-15.5 -13.5t-16.5 -19t-17 -20.5zM479 276q0 -63 28 -91.5t89 -28.5q67 0 154 63v291q-161 -55 -216 -101.5t-55 -132.5z" />
<glyph unicode="&#xe4;" horiz-adv-x="1374" d="M55 238q0 149 114 228q89 61 314 114q5 2 267 59v49q0 125 -47.5 182.5t-149.5 57.5q-94 0 -135 -17v-16q17 -19 26 -31.5t19 -38t10 -51.5q0 -53 -39 -94t-104 -41q-72 0 -123 41.5t-51 128.5q0 120 115.5 189t357.5 69q90 0 162.5 -5.5t146 -20t127 -41t96.5 -66.5 t65.5 -99.5t22.5 -136.5l2 -600l90 -39v-36q-13 -6 -36 -15t-91.5 -24t-132.5 -15q-256 0 -315 133h-6q-66 -57 -172 -95t-201 -38q-160 0 -246 69.5t-86 199.5zM344 1307q0 65 46 111t110 46t110.5 -46t46.5 -111q0 -64 -46 -110t-111 -46q-64 0 -110 45.5t-46 110.5z M479 276q0 -63 28 -91.5t89 -28.5q67 0 154 63v291q-161 -55 -216 -101.5t-55 -132.5zM793 1307q0 65 45.5 111t111.5 46q64 0 110 -46t46 -111t-46 -110.5t-110 -45.5q-66 0 -111.5 45.5t-45.5 110.5z" />
<glyph unicode="&#xe5;" horiz-adv-x="1374" d="M55 238q0 149 114 228q89 61 314 114q5 2 267 59v49q0 125 -47.5 182.5t-149.5 57.5q-94 0 -135 -17v-16q17 -19 26 -31.5t19 -38t10 -51.5q0 -53 -39 -94t-104 -41q-72 0 -123 41.5t-51 128.5q0 120 115.5 189t357.5 69q90 0 162.5 -5.5t146 -20t127 -41t96.5 -66.5 t65.5 -99.5t22.5 -136.5l2 -600l90 -39v-36q-13 -6 -36 -15t-91.5 -24t-132.5 -15q-256 0 -315 133h-6q-66 -57 -172 -95t-201 -38q-160 0 -246 69.5t-86 199.5zM477 1360q0 88 61.5 149.5t149.5 61.5q86 0 147.5 -61.5t61.5 -149.5q0 -87 -61 -148t-148 -61 q-88 0 -149.5 60.5t-61.5 148.5zM479 276q0 -63 28 -91.5t89 -28.5q67 0 154 63v291q-161 -55 -216 -101.5t-55 -132.5zM588 1360q0 -41 29.5 -69.5t70.5 -28.5t69.5 28.5t28.5 69.5t-28.5 70.5t-69.5 29.5t-70.5 -29.5t-29.5 -70.5z" />
<glyph unicode="&#xe6;" horiz-adv-x="2062" d="M55 238q0 149 114 228q89 61 314 114q5 2 267 59v49q0 125 -47.5 182.5t-149.5 57.5q-46 0 -80 -4t-45 -8l-10 -5v-16q17 -19 26 -31.5t19 -38t10 -51.5q0 -53 -39 -94t-104 -41q-72 0 -123 41.5t-51 128.5q0 120 115.5 189t357.5 69q291 0 432 -66q148 66 313 66 q143 0 251.5 -25.5t174 -67t106.5 -101.5t55.5 -121.5t14.5 -135.5q0 -39 -3 -70t-11.5 -56.5t-17 -44.5t-27 -33.5t-33 -24.5t-43.5 -16.5t-51 -10t-62 -5.5t-69.5 -2.5t-81.5 -0.5h-326q0 -120 44.5 -164.5t162.5 -44.5q154 0 260.5 39t206.5 107l64 -86 q-53 -65 -133 -113t-156.5 -70.5t-145.5 -35t-111 -14.5l-42 -1q-135 0 -279 47.5t-243 141.5q-31 -31 -71.5 -60t-101.5 -60t-144 -50t-175 -19q-160 0 -246 69.5t-86 199.5zM479 276q0 -63 28 -91.5t89 -28.5q106 0 211 92q-37 62 -53.5 110t-16.5 117v35 q-154 -56 -206 -102.5t-52 -131.5zM1251 479h63t70.5 -0.5t53 4.5t37.5 13.5t24 27t13 44.5t4 67q0 293 -154 293q-41 0 -65 -18t-33.5 -68.5t-11.5 -85.5t-1 -125v-56v-96z" />
<glyph unicode="&#xe7;" horiz-adv-x="1251" d="M74 502q0 168 86.5 298t231.5 198.5t321 68.5q125 0 219 -23t144.5 -55.5t81.5 -76.5t39.5 -77t8.5 -65q0 -109 -51.5 -177.5t-148.5 -68.5q-85 0 -128.5 47.5t-43.5 110.5q-1 32 8.5 63.5t23.5 54t28 40t24 26.5l10 8v27q-22 13 -43.5 19t-35 7t-38.5 1 q-123 0 -175 -95.5t-52 -330.5q0 -60 5.5 -108t22 -96.5t44 -81t74 -53t108.5 -20.5q164 0 307 78l59 -84q-60 -56 -167 -105.5t-251 -60.5l-22 -80q291 0 291 -159q0 -88 -88.5 -137.5t-253.5 -49.5q-182 0 -305 33v60h174q155 0 155 86q0 73 -121 73q-49 -2 -100 -12 l-14 14l51 187q-73 15 -139.5 42t-129.5 71t-109 100t-73.5 134t-27.5 169z" />
<glyph unicode="&#xe8;" horiz-adv-x="1398" d="M74 502q0 168 86 298t230.5 198.5t320.5 68.5q143 0 251.5 -25.5t174 -67t106.5 -101.5t55.5 -121.5t14.5 -135.5q0 -65 -8 -109.5t-33 -73.5t-49.5 -45.5t-79.5 -24.5t-99.5 -9.5t-130.5 -1.5h-325q0 -120 45 -164.5t162 -44.5q154 0 260.5 39t206.5 107l63 -86 q-8 -10 -23 -25.5t-69.5 -56t-117 -71t-165 -56t-213.5 -25.5q-83 0 -170.5 17.5t-177 58.5t-158.5 100t-113 152t-44 205zM371 1403q0 59 37.5 96t101.5 37q37 0 66 -11.5t51.5 -36.5t35 -44t31.5 -55q31 -61 77 -104t138 -79v-55h-149q-16 4 -54.5 14t-63.5 16.5t-63.5 19 t-64 24.5t-55 30.5t-47 39t-29.5 48.5t-12 60zM588 479h63t70.5 -0.5t53 4.5t37.5 13.5t23.5 27t12.5 44.5t4 67q0 293 -154 293q-76 0 -98 -81q-14 -51 -12 -213v-59v-96z" />
<glyph unicode="&#xe9;" horiz-adv-x="1398" d="M74 502q0 168 86 298t230.5 198.5t320.5 68.5q143 0 251.5 -25.5t174 -67t106.5 -101.5t55.5 -121.5t14.5 -135.5q0 -65 -8 -109.5t-33 -73.5t-49.5 -45.5t-79.5 -24.5t-99.5 -9.5t-130.5 -1.5h-325q0 -120 45 -164.5t162 -44.5q154 0 260.5 39t206.5 107l63 -86 q-8 -10 -23 -25.5t-69.5 -56t-117 -71t-165 -56t-213.5 -25.5q-83 0 -170.5 17.5t-177 58.5t-158.5 100t-113 152t-44 205zM588 479h63t70.5 -0.5t53 4.5t37.5 13.5t23.5 27t12.5 44.5t4 67q0 293 -154 293q-76 0 -98 -81q-14 -51 -12 -213v-59v-96zM588 1151v55 q92 36 138 79t77 104q19 36 31.5 55t35 44t51.5 36.5t66 11.5q65 0 102 -37t37 -96q0 -32 -12 -60t-29.5 -48.5t-47 -39t-55 -30.5t-64 -24.5t-63.5 -19t-63.5 -16.5t-54.5 -14h-149z" />
<glyph unicode="&#xea;" horiz-adv-x="1398" d="M74 502q0 168 86 298t230.5 198.5t320.5 68.5q143 0 251.5 -25.5t174 -67t106.5 -101.5t55.5 -121.5t14.5 -135.5q0 -65 -8 -109.5t-33 -73.5t-49.5 -45.5t-79.5 -24.5t-99.5 -9.5t-130.5 -1.5h-325q0 -120 45 -164.5t162 -44.5q154 0 260.5 39t206.5 107l63 -86 q-8 -10 -23 -25.5t-69.5 -56t-117 -71t-165 -56t-213.5 -25.5q-83 0 -170.5 17.5t-177 58.5t-158.5 100t-113 152t-44 205zM338 1165l139 236q20 32 42.5 45.5t70.5 13.5h250q47 0 69.5 -14t42.5 -45q21 -37 140 -236l-121 -49q-96 78 -159 122.5t-78 49.5l-15 6h-6 q-5 -1 -18 -7t-77.5 -50.5t-158.5 -120.5zM588 479h63t70.5 -0.5t53 4.5t37.5 13.5t23.5 27t12.5 44.5t4 67q0 293 -154 293q-76 0 -98 -81q-14 -51 -12 -213v-59v-96z" />
<glyph unicode="&#xeb;" horiz-adv-x="1398" d="M74 502q0 168 86 298t230.5 198.5t320.5 68.5q143 0 251.5 -25.5t174 -67t106.5 -101.5t55.5 -121.5t14.5 -135.5q0 -65 -8 -109.5t-33 -73.5t-49.5 -45.5t-79.5 -24.5t-99.5 -9.5t-130.5 -1.5h-325q0 -120 45 -164.5t162 -44.5q154 0 260.5 39t206.5 107l63 -86 q-8 -10 -23 -25.5t-69.5 -56t-117 -71t-165 -56t-213.5 -25.5q-83 0 -170.5 17.5t-177 58.5t-158.5 100t-113 152t-44 205zM340 1307q0 65 46 111t110 46t110.5 -46t46.5 -111q0 -64 -46 -110t-111 -46q-64 0 -110 45.5t-46 110.5zM588 479h63t70.5 -0.5t53 4.5t37.5 13.5 t23.5 27t12.5 44.5t4 67q0 293 -154 293q-76 0 -98 -81q-14 -51 -12 -213v-59v-96zM788 1307q0 65 46 111t112 46q64 0 110 -46t46 -111t-46 -110.5t-110 -45.5q-66 0 -112 45.5t-46 110.5z" />
<glyph unicode="&#xec;" horiz-adv-x="782" d="M0 817v101h217q256 0 399 114h43v-956l91 -39v-37h-680v37l88 39v655zM0 1403q0 59 37 96t102 37q37 0 66 -11.5t52 -36.5t35.5 -44.5t31.5 -54.5q31 -61 77 -104t138 -79v-55h-150q-16 4 -54.5 14t-63.5 16.5t-63.5 19t-64 24.5t-55 30.5t-47 39t-29.5 48.5t-12 60z" />
<glyph unicode="&#xed;" horiz-adv-x="782" d="M0 817v101h217q256 0 399 114h43v-956l91 -39v-37h-680v37l88 39v655zM172 1151v55q92 36 138 79t77 104q19 36 31.5 55t35 44t51.5 36.5t66 11.5q65 0 102.5 -37.5t37.5 -95.5q0 -32 -12 -60t-29.5 -48.5t-47 -39t-55 -30.5t-64 -24.5t-63.5 -19t-63.5 -16.5t-54.5 -14 h-150z" />
<glyph unicode="&#xee;" horiz-adv-x="782" d="M0 817v101h217q256 0 399 114h43v-956l91 -39v-37h-680v37l88 39v655zM16 1165l140 236q20 32 42 45.5t70 13.5h250q47 0 70.5 -14t42.5 -45q20 -37 139 -236l-121 -49q-96 78 -159 122.5t-78 49.5l-15 6h-6q-5 -1 -18 -7t-77.5 -50.5t-158.5 -120.5z" />
<glyph unicode="&#xef;" horiz-adv-x="782" d="M0 817v101h217q256 0 399 114h43v-956l91 -39v-37h-680v37l88 39v655zM12 1307q0 65 46 111t110 46q65 0 111.5 -46.5t46.5 -110.5t-46.5 -110t-111.5 -46q-64 0 -110 45.5t-46 110.5zM461 1307q0 65 45.5 111t111.5 46q64 0 110 -46t46 -111t-46 -110.5t-110 -45.5 q-66 0 -111.5 45.5t-45.5 110.5z" />
<glyph unicode="&#xf0;" horiz-adv-x="1478" d="M74 487q0 79 15.5 153t58.5 153.5t111.5 137.5t184.5 96t267 38h30q-50 80 -125 158l-378 -146l-66 172l289 111q-50 37 -100.5 68t-93.5 54t-44 23l88 117q224 -41 437 -154l374 144l66 -170l-244 -94q96 -71 174 -153t141 -181.5t97.5 -219.5t34.5 -249 q0 -79 -15.5 -153t-59 -153.5t-112 -137.5t-185 -96t-267.5 -38q-336 0 -507 139t-171 381zM594 547q0 -239 36 -340t128 -101q71 0 91.5 80t20.5 299q0 240 -35.5 340.5t-127.5 100.5q-72 0 -92.5 -79.5t-20.5 -299.5z" />
<glyph unicode="&#xf1;" horiz-adv-x="1519" d="M18 711v102q57 0 109 12t86 28.5t60 33.5t37 29l12 12h79l25 -131h8q43 21 140 76.5t166 92t164 68t173 31.5q73 0 129 -18.5t91.5 -49t58.5 -74.5t32 -91t9 -103v-653l88 -39v-37h-590v649q0 69 -21 95t-81 26q-58 0 -136 -43v-653l91 -37v-37h-678v37l86 37v563z M367 1145q12 37 18 55t21.5 56t30.5 60t37 47t50 36.5t60 11.5q17 0 40.5 -3.5t41.5 -7.5t51 -12t51 -12q13 -3 41 -10t41 -10t34 -7.5t37.5 -6t32.5 -1.5q24 0 40.5 2.5t30.5 12t20 14t20.5 22t19.5 23.5l68 -2q-9 -28 -11.5 -35t-13 -36.5t-16 -41t-18 -37.5t-22.5 -37.5 t-26 -30t-32 -27t-36 -15t-42 -6.5q-17 0 -40.5 3.5t-41.5 7.5t-51 12t-51 12q-12 3 -41 10.5t-41.5 10t-34 7t-38 6t-32.5 1.5q-20 0 -36 -3t-25.5 -6t-20.5 -12t-15.5 -13.5t-16.5 -19t-17 -20.5z" />
<glyph unicode="&#xf2;" horiz-adv-x="1464" d="M74 487q0 79 15.5 153t58.5 153.5t111.5 137.5t184.5 96t267 38q337 0 508.5 -139t171.5 -381q0 -79 -15.5 -153t-59 -153.5t-112 -137.5t-185 -96t-267.5 -38q-336 0 -507 139t-171 381zM352 1403q0 58 37.5 95.5t102.5 37.5q37 0 66 -11.5t51.5 -36.5t35 -44t31.5 -55 q31 -61 77 -104t138 -79v-55h-150q-16 4 -54.5 14t-63.5 16.5t-63.5 19t-64 24.5t-55 30.5t-47 39t-29.5 48.5t-12 60zM594 547q0 -239 36 -340t128 -101q71 0 91.5 80t20.5 299q0 240 -35.5 340.5t-127.5 100.5q-72 0 -92.5 -79.5t-20.5 -299.5z" />
<glyph unicode="&#xf3;" horiz-adv-x="1464" d="M74 487q0 79 15.5 153t58.5 153.5t111.5 137.5t184.5 96t267 38q337 0 508.5 -139t171.5 -381q0 -79 -15.5 -153t-59 -153.5t-112 -137.5t-185 -96t-267.5 -38q-336 0 -507 139t-171 381zM594 547q0 -239 36 -340t128 -101q71 0 91.5 80t20.5 299q0 240 -35.5 340.5 t-127.5 100.5q-72 0 -92.5 -79.5t-20.5 -299.5zM608 1151v55q92 36 138 79t77 104q19 35 31.5 54.5t35.5 44.5t52 36.5t66 11.5q64 0 101.5 -37t37.5 -96q0 -32 -12 -60t-29.5 -48.5t-47 -39t-55 -30.5t-64 -24.5t-63.5 -19t-63.5 -16.5t-54.5 -14h-150z" />
<glyph unicode="&#xf4;" horiz-adv-x="1464" d="M74 487q0 79 15.5 153t58.5 153.5t111.5 137.5t184.5 96t267 38q337 0 508.5 -139t171.5 -381q0 -79 -15.5 -153t-59 -153.5t-112 -137.5t-185 -96t-267.5 -38q-336 0 -507 139t-171 381zM354 1165l140 236q20 32 42 45.5t70 13.5h250q47 0 70.5 -14t42.5 -45 q20 -37 139 -236l-121 -49q-96 78 -159 122.5t-78 49.5l-15 6h-6q-5 -1 -18 -7t-77.5 -50.5t-158.5 -120.5zM594 547q0 -239 36 -340t128 -101q71 0 91.5 80t20.5 299q0 240 -35.5 340.5t-127.5 100.5q-72 0 -92.5 -79.5t-20.5 -299.5z" />
<glyph unicode="&#xf5;" horiz-adv-x="1464" d="M74 487q0 79 15.5 153t58.5 153.5t111.5 137.5t184.5 96t267 38q337 0 508.5 -139t171.5 -381q0 -79 -15.5 -153t-59 -153.5t-112 -137.5t-185 -96t-267.5 -38q-336 0 -507 139t-171 381zM338 1145q12 37 18 55t21.5 56t30.5 60t37 47t50 36.5t60 11.5q17 0 40.5 -3.5 t41.5 -7.5t51 -12t51 -12q12 -3 41 -10.5t41.5 -10t34 -7t38 -6t32.5 -1.5q24 0 40.5 2.5t30.5 12t20 14t20.5 22t19.5 23.5l67 -2q-9 -28 -11.5 -35t-13 -36.5t-16 -41t-18 -37.5t-22.5 -37.5t-26 -30t-32 -27t-36 -15t-42 -6.5q-17 0 -40.5 3.5t-41.5 7.5t-51 12t-51 12 q-13 3 -41 10t-41 10t-34 7.5t-37.5 6t-32.5 1.5q-20 0 -36 -3t-25.5 -6t-20.5 -12t-15.5 -13.5t-16.5 -19t-17 -20.5zM594 547q0 -239 36 -340t128 -101q71 0 91.5 80t20.5 299q0 240 -35.5 340.5t-127.5 100.5q-72 0 -92.5 -79.5t-20.5 -299.5z" />
<glyph unicode="&#xf6;" horiz-adv-x="1464" d="M74 487q0 79 15.5 153t58.5 153.5t111.5 137.5t184.5 96t267 38q337 0 508.5 -139t171.5 -381q0 -79 -15.5 -153t-59 -153.5t-112 -137.5t-185 -96t-267.5 -38q-336 0 -507 139t-171 381zM350 1307q0 65 46 111t110 46q65 0 111.5 -46.5t46.5 -110.5t-46.5 -110 t-111.5 -46q-64 0 -110 45.5t-46 110.5zM594 547q0 -239 36 -340t128 -101q71 0 91.5 80t20.5 299q0 240 -35.5 340.5t-127.5 100.5q-72 0 -92.5 -79.5t-20.5 -299.5zM799 1307q0 65 45.5 111t111.5 46q64 0 110 -46t46 -111t-46 -110.5t-110 -45.5q-66 0 -111.5 45.5 t-45.5 110.5z" />
<glyph unicode="&#xf8;" horiz-adv-x="1464" d="M74 487q0 79 15.5 153t58.5 153.5t111.5 137.5t184.5 96t267 38q223 0 379 -64l45 48h239l-135 -138q152 -137 152 -366q0 -79 -15.5 -153t-59 -153.5t-112 -137.5t-185 -96t-267.5 -38q-219 0 -375 62l-51 -47h-240l139 139q-151 133 -151 366zM594 498l258 262 q-17 86 -52 126t-93 40q-72 0 -92.5 -79.5t-20.5 -299.5v-49zM612 270q17 -86 51.5 -125t94.5 -39q71 0 91.5 80t20.5 299v47z" />
<glyph unicode="&#xf9;" horiz-adv-x="1521" d="M0 709v104q13 0 36 1.5t89 13t127.5 32t137.5 66t132 106.5h137v-430q0 -183 8 -258t35 -102q43 -43 107 -43q48 0 88 43v790h502v-764l90 -53v-100q-8 0 -22 -0.5t-56.5 -7t-83.5 -17t-95 -34.5t-99 -56h-82v145q-220 -180 -435 -180q-224 0 -341 117.5t-117 337.5v201z M348 1403q0 59 37 96t102 37q37 0 66 -11.5t52 -36.5t35.5 -44.5t31.5 -54.5q31 -61 77 -104t138 -79v-55h-150q-16 4 -54.5 14t-63.5 16.5t-63.5 19t-64 24.5t-55 30.5t-47 39t-29.5 48.5t-12 60z" />
<glyph unicode="&#xfa;" horiz-adv-x="1521" d="M0 709v104q13 0 36 1.5t89 13t127.5 32t137.5 66t132 106.5h137v-430q0 -183 8 -258t35 -102q43 -43 107 -43q48 0 88 43v790h502v-764l90 -53v-100q-8 0 -22 -0.5t-56.5 -7t-83.5 -17t-95 -34.5t-99 -56h-82v145q-220 -180 -435 -180q-224 0 -341 117.5t-117 337.5v201z M668 1151v55q92 36 138 79t77 104q19 36 31.5 55t35 44t51.5 36.5t66 11.5q65 0 102 -37t37 -96q0 -32 -12 -60t-29.5 -48.5t-47 -39t-55 -30.5t-64 -24.5t-63.5 -19t-63.5 -16.5t-54.5 -14h-149z" />
<glyph unicode="&#xfb;" horiz-adv-x="1521" d="M0 709v104q13 0 36 1.5t89 13t127.5 32t137.5 66t132 106.5h137v-430q0 -183 8 -258t35 -102q43 -43 107 -43q48 0 88 43v790h502v-764l90 -53v-100q-8 0 -22 -0.5t-56.5 -7t-83.5 -17t-95 -34.5t-99 -56h-82v145q-220 -180 -435 -180q-224 0 -341 117.5t-117 337.5v201z M385 1165l139 236q20 32 42.5 45.5t70.5 13.5h250q47 0 69.5 -14t42.5 -45q21 -37 140 -236l-121 -49q-96 78 -159 122.5t-78 49.5l-15 6h-6q-5 -1 -18 -7t-77.5 -50.5t-158.5 -120.5z" />
<glyph unicode="&#xfc;" horiz-adv-x="1521" d="M0 709v104q13 0 36 1.5t89 13t127.5 32t137.5 66t132 106.5h137v-430q0 -183 8 -258t35 -102q43 -43 107 -43q48 0 88 43v790h502v-764l90 -53v-100q-8 0 -22 -0.5t-56.5 -7t-83.5 -17t-95 -34.5t-99 -56h-82v145q-220 -180 -435 -180q-224 0 -341 117.5t-117 337.5v201z M381 1307q0 65 46 111t110 46q65 0 111 -46t46 -111q0 -64 -46 -110t-111 -46t-110.5 45.5t-45.5 110.5zM829 1307q0 65 46 111t112 46q64 0 110 -46t46 -111t-45.5 -110.5t-110.5 -45.5q-66 0 -112 45.5t-46 110.5z" />
<glyph unicode="&#xfd;" horiz-adv-x="1482" d="M0 932v100h793v-102l-84 -35l233 -412h6l205 412l-94 35v102h424v-102l-127 -35l-443 -895q-52 -105 -90.5 -172t-87 -129.5t-98.5 -96t-116 -53.5t-148 -20q-153 0 -238.5 74t-85.5 170q0 83 45.5 130.5t136.5 47.5q66 0 107 -38t41 -95q0 -47 -13 -79.5t-55 -72.5v-20 q20 -8 66 -8q28 0 52 3.5t45.5 15t37.5 21.5t34.5 33.5t31 40.5t32.5 53.5t32 60.5t36 73l-541 956zM786 1151v55q92 36 138 79t77 104q19 35 31.5 54.5t35.5 44.5t52 36.5t66 11.5q64 0 101.5 -37t37.5 -96q0 -32 -12 -60t-29.5 -48.5t-47 -39t-55 -30.5t-64 -24.5 t-63.5 -19t-63.5 -16.5t-54.5 -14h-150z" />
<glyph unicode="&#xfe;" horiz-adv-x="1533" d="M0 1253v101h217q256 0 399 114h46v-569q45 66 137.5 117t175.5 51q218 0 351.5 -134t133.5 -366q0 -113 -36.5 -218t-105.5 -191.5t-182 -138.5t-253 -52q-123 0 -221 43v-370l90 -39v-35h-682v35l90 39v1529zM662 166q48 -29 120 -29q83 0 113 35q27 27 35 104.5 t8 264.5v49q0 111 -4 154.5t-23 62.5q-20 20 -40.5 27.5t-55.5 7.5q-48 0 -84 -38.5t-52.5 -91t-16.5 -106.5v-440z" />
<glyph unicode="&#xff;" horiz-adv-x="1482" d="M0 932v100h793v-102l-84 -35l233 -412h6l205 412l-94 35v102h424v-102l-127 -35l-443 -895q-52 -105 -90.5 -172t-87 -129.5t-98.5 -96t-116 -53.5t-148 -20q-153 0 -238.5 74t-85.5 170q0 83 45.5 130.5t136.5 47.5q66 0 107 -38t41 -95q0 -47 -13 -79.5t-55 -72.5v-20 q20 -8 66 -8q28 0 52 3.5t45.5 15t37.5 21.5t34.5 33.5t31 40.5t32.5 53.5t32 60.5t36 73l-541 956zM563 1307q0 65 46 111t110 46q65 0 111.5 -46.5t46.5 -110.5t-46.5 -110t-111.5 -46t-110.5 45.5t-45.5 110.5zM1012 1307q0 65 45.5 111t111.5 46q64 0 110 -46t46 -111 t-45.5 -110.5t-110.5 -45.5q-66 0 -111.5 45.5t-45.5 110.5z" />
<glyph unicode="&#x152;" horiz-adv-x="2461" d="M86 678q0 129 46 243.5t126.5 199t186 146.5t227.5 93t248 31q130 0 258 -35h1198v-404l-140 -24l-82 223h-602v-6q156 -152 189 -363h203l59 138h86v-486h-86l-59 139l2 2h-203q-23 -215 -154 -362v-6h606l84 225l142 -29v-403h-1217q-132 -33 -303 -33 q-186 0 -335 44.5t-256.5 131.5t-165.5 223t-58 312zM639 662q0 -488 281 -488q276 0 276 488q0 113 -6.5 193t-24.5 149t-49 110.5t-79.5 64.5t-116.5 23q-69 0 -118 -23t-80.5 -64.5t-50 -110.5t-25.5 -149.5t-7 -192.5z" />
<glyph unicode="&#x153;" horiz-adv-x="2195" d="M74 487q0 79 15.5 153t58.5 153.5t111.5 137.5t184.5 96t267 38q272 0 434 -90q159 92 362 92q120 0 215.5 -17t160 -49.5t110 -73t70 -93t35.5 -105t11 -113.5q0 -39 -3 -70t-11.5 -56.5t-17 -44.5t-27 -33.5t-33 -24.5t-43.5 -16.5t-51 -10t-62 -5.5t-69.5 -2.5 t-81.5 -0.5h-326q0 -120 45 -164.5t162 -44.5q154 0 260.5 39t206.5 107l64 -86q-8 -10 -23 -25.5t-69.5 -56t-117 -71t-165 -56t-213.5 -25.5q-215 0 -385 94q-153 -96 -397 -96q-336 0 -507 139t-171 381zM594 547q0 -239 36 -340t128 -101q71 0 91.5 80t20.5 299 q0 240 -35.5 340.5t-127.5 100.5q-72 0 -92.5 -79.5t-20.5 -299.5zM1384 479h63t70.5 -0.5t53 4.5t37.5 13.5t24 27t13 44.5t4 67q0 293 -154 293q-41 0 -65 -18t-33.5 -68.5t-11.5 -85.5t-1 -125v-56v-96z" />
<glyph unicode="&#x178;" horiz-adv-x="1878" d="M41 1255v101h926v-101l-123 -73l272 -418h4l230 418l-121 73v101h608v-101l-160 -73l-465 -678v-387l140 -58v-59h-805v59l137 58v387l-487 678zM731 1630q0 65 46 111.5t110 46.5t110.5 -46.5t46.5 -111.5q0 -64 -46 -109.5t-111 -45.5t-110.5 45.5t-45.5 109.5z M1180 1630q0 65 45.5 111.5t111.5 46.5q64 0 110 -46.5t46 -111.5q0 -64 -45.5 -109.5t-110.5 -45.5q-66 0 -111.5 45t-45.5 110z" />
<glyph unicode="&#x2c6;" horiz-adv-x="1290" d="M268 1165l140 236q20 32 42 45.5t70 13.5h250q47 0 70.5 -14t42.5 -45q20 -37 139 -236l-121 -49q-96 78 -159 122.5t-78 49.5l-15 6h-6q-5 -1 -18 -7t-77.5 -50.5t-158.5 -120.5z" />
<glyph unicode="&#x2dc;" horiz-adv-x="1290" d="M252 1145q12 37 18 55t21.5 56t30.5 60t37 47t50 36.5t60 11.5q17 0 40.5 -3.5t41.5 -7.5t51 -12t51 -12q12 -3 41 -10.5t41.5 -10t34 -7t38 -6t32.5 -1.5q24 0 40.5 2.5t30.5 12t20 14t20.5 22t19.5 23.5l67 -2q-9 -28 -11.5 -35t-13 -36.5t-16 -41t-18 -37.5 t-22.5 -37.5t-26 -30t-32 -27t-36 -15t-42 -6.5q-17 0 -40.5 3.5t-41.5 7.5t-51 12t-51 12q-13 3 -41 10t-41 10t-34 7.5t-37.5 6t-32.5 1.5q-20 0 -36 -3t-25.5 -5.5t-21 -12t-15.5 -13.5t-16.5 -19.5t-17.5 -20.5z" />
<glyph unicode="&#x2000;" horiz-adv-x="947" />
<glyph unicode="&#x2001;" horiz-adv-x="1894" />
<glyph unicode="&#x2002;" horiz-adv-x="947" />
<glyph unicode="&#x2003;" horiz-adv-x="1894" />
<glyph unicode="&#x2004;" horiz-adv-x="631" />
<glyph unicode="&#x2005;" horiz-adv-x="473" />
<glyph unicode="&#x2006;" horiz-adv-x="315" />
<glyph unicode="&#x2007;" horiz-adv-x="315" />
<glyph unicode="&#x2008;" horiz-adv-x="236" />
<glyph unicode="&#x2009;" horiz-adv-x="378" />
<glyph unicode="&#x200a;" horiz-adv-x="105" />
<glyph unicode="&#x2010;" horiz-adv-x="645" d="M86 414v204h473v-204h-473z" />
<glyph unicode="&#x2011;" horiz-adv-x="645" d="M86 414v204h473v-204h-473z" />
<glyph unicode="&#x2012;" horiz-adv-x="645" d="M86 414v204h473v-204h-473z" />
<glyph unicode="&#x2013;" horiz-adv-x="921" d="M86 414v204h750v-204h-750z" />
<glyph unicode="&#x2014;" horiz-adv-x="1474" d="M86 414v204h1303v-204h-1303z" />
<glyph unicode="&#x2018;" horiz-adv-x="573" d="M74 1063q0 72 27.5 132t72.5 99t95.5 63.5t103.5 35.5l24 -43q-110 -82 -125 -168h11q9 6 22 9.5t22 4.5h9q75 0 113 -43.5t38 -110.5q0 -70 -49.5 -119t-156.5 -49q-56 0 -98.5 18t-65 47t-33 60t-10.5 64z" />
<glyph unicode="&#x2019;" horiz-adv-x="573" d="M86 1225q0 70 49.5 119t157.5 49q56 0 98.5 -17.5t65 -46.5t33 -60t10.5 -63q0 -72 -27.5 -132.5t-73 -99.5t-95 -63.5t-103.5 -36.5l-27 46q112 84 127 167h-10q-9 -6 -22 -9.5t-22 -3.5l-9 -1q-75 0 -113.5 43.5t-38.5 108.5z" />
<glyph unicode="&#x201a;" horiz-adv-x="573" d="M86 160q0 70 49.5 119t157.5 49q56 0 98.5 -17.5t65 -46.5t33 -60.5t10.5 -64.5q0 -72 -27.5 -131.5t-73 -98t-95 -63t-103.5 -36.5l-27 45q113 84 127 168h-10q-9 -6 -22 -10t-22 -5h-9q-75 0 -113.5 43.5t-38.5 108.5z" />
<glyph unicode="&#x201c;" horiz-adv-x="1077" d="M74 1063q0 72 27.5 132t72.5 99t95.5 63.5t103.5 35.5l24 -43q-110 -82 -125 -168h11q9 6 22 9.5t22 4.5h9q75 0 113 -43.5t38 -110.5q0 -70 -49.5 -119t-156.5 -49q-56 0 -98.5 18t-65 47t-33 60t-10.5 64zM580 1063q0 72 27.5 132t72.5 99t94.5 63.5t102.5 35.5l26 -43 q-113 -84 -125 -168h8q9 6 22.5 9.5t22.5 4.5h9q77 0 114 -43.5t37 -110.5q0 -70 -49 -119t-158 -49q-56 0 -97.5 18t-63.5 47t-32.5 60t-10.5 64z" />
<glyph unicode="&#x201d;" horiz-adv-x="1077" d="M86 1225q0 70 49.5 119t157.5 49q56 0 98.5 -17.5t65 -46.5t33 -60t10.5 -63q0 -72 -27.5 -132.5t-73 -99.5t-95 -63.5t-103.5 -36.5l-27 46q112 84 127 167h-10q-9 -6 -22 -9.5t-22 -3.5l-9 -1q-75 0 -113.5 43.5t-38.5 108.5zM592 1225q0 71 49 119.5t158 48.5 q56 0 97.5 -17.5t64 -46.5t33 -60t10.5 -63q0 -72 -27.5 -132.5t-72.5 -99.5t-94.5 -63.5t-102.5 -36.5l-27 46q113 84 125 167h-8q-9 -6 -22.5 -9.5t-22.5 -3.5l-9 -1q-77 0 -114 43t-37 109z" />
<glyph unicode="&#x201e;" horiz-adv-x="1077" d="M86 160q0 70 49.5 119t157.5 49q56 0 98.5 -17.5t65 -46.5t33 -60.5t10.5 -64.5q0 -72 -27.5 -131.5t-73 -98t-95 -63t-103.5 -36.5l-27 45q113 84 127 168h-10q-9 -6 -22 -10t-22 -5h-9q-75 0 -113.5 43.5t-38.5 108.5zM592 160q0 71 49 119.5t158 48.5q56 0 97.5 -17.5 t64 -46.5t33 -60.5t10.5 -64.5q0 -72 -27.5 -131.5t-72.5 -98t-94.5 -63t-102.5 -36.5l-27 45q113 84 125 168h-8q-9 -6 -22.5 -10t-22.5 -5h-9q-77 0 -114 43t-37 109z" />
<glyph unicode="&#x2022;" horiz-adv-x="778" d="M102 643q0 120 83.5 203.5t203.5 83.5t203.5 -83.5t83.5 -203.5t-83.5 -203.5t-203.5 -83.5t-203.5 83.5t-83.5 203.5z" />
<glyph unicode="&#x2026;" horiz-adv-x="1925" d="M92 178q0 77 54.5 128.5t175.5 51.5q119 0 173 -51.5t54 -128.5t-54 -127.5t-173 -50.5q-121 0 -175.5 51t-54.5 127zM733 178q0 77 54.5 128.5t175.5 51.5q119 0 173 -51.5t54 -128.5t-54 -127.5t-173 -50.5q-121 0 -175.5 51t-54.5 127zM1374 178q0 77 54.5 128.5 t175.5 51.5t175 -51.5t54 -128.5t-54 -127.5t-175 -50.5t-175.5 51t-54.5 127z" />
<glyph unicode="&#x202f;" horiz-adv-x="378" />
<glyph unicode="&#x2039;" horiz-adv-x="733" d="M63 418v143l558 420l49 -121q-199 -316 -203 -346v-49q2 -25 203 -346l-49 -119z" />
<glyph unicode="&#x203a;" horiz-adv-x="733" d="M63 119q90 143 141 229.5t56 101.5l6 15v49q0 28 -203 346l50 121l557 -420v-143l-557 -418z" />
<glyph unicode="&#x205f;" horiz-adv-x="473" />
<glyph unicode="&#x20ac;" horiz-adv-x="1771" d="M18 416l62 151h139q-4 58 -4 86v43h-197l62 152h160q43 163 156 287t269.5 190t333.5 66q234 0 426 -129l80 94h181l-146 -359h-151q-28 57 -66 99.5t-72 61.5t-63.5 30.5t-47.5 12.5l-18 1q-134 0 -218.5 -90.5t-112.5 -263.5h690l-62 -152h-641v-34q0 -33 4 -95h586 l-61 -151h-488q49 -119 138.5 -179.5t191.5 -60.5q43 0 87 5.5t91 19t80 23.5t82 31.5t67 29t64 30.5l47 23l31 -109q-9 -11 -26.5 -28.5t-78 -62.5t-129 -79.5t-177.5 -63t-224 -28.5q-207 0 -368.5 45.5t-279.5 147.5t-167 256h-230z" />
<glyph unicode="&#x2122;" horiz-adv-x="1300" d="M37 1206v150h467v-150l-33 -4l-57 86h-56v-344l45 -20v-19h-266v19l45 20v344h-55l-59 -86zM537 905v19l45 20v354l-45 25v33h270l98 -242h2l94 242h263v-33l-45 -25v-354l45 -20v-19h-269v19l45 20v295l-137 -334h-102l-137 334h-2v-295l47 -20v-19h-172z" />
<glyph unicode="&#x25fc;" horiz-adv-x="1034" d="M0 0v1034h1034v-1034h-1034z" />
</font>
</defs>
</svg>
