<?xml version="1.0" encoding="UTF-8" standalone="no"?>
<!-- Created with Inkscape (http://www.inkscape.org/) -->

<svg
   xmlns:dc="http://purl.org/dc/elements/1.1/"
   xmlns:cc="http://creativecommons.org/ns#"
   xmlns:rdf="http://www.w3.org/1999/02/22-rdf-syntax-ns#"
   xmlns:svg="http://www.w3.org/2000/svg"
   xmlns="http://www.w3.org/2000/svg"
   xmlns:sodipodi="http://sodipodi.sourceforge.net/DTD/sodipodi-0.dtd"
   xmlns:inkscape="http://www.inkscape.org/namespaces/inkscape"
   width="114.95497mm"
   height="10.596477mm"
   viewBox="0 0 407.32076 37.54657"
   id="svg4231"
   version="1.1"
   inkscape:version="0.91 r13725"
   sodipodi:docname="drawing-2.svg">
  <defs
     id="defs4233" />
  <sodipodi:namedview
     id="base"
     pagecolor="#ffffff"
     bordercolor="#666666"
     borderopacity="1.0"
     inkscape:pageopacity="0.0"
     inkscape:pageshadow="2"
     inkscape:zoom="1.979899"
     inkscape:cx="205.94228"
     inkscape:cy="4.9164805"
     inkscape:document-units="px"
     inkscape:current-layer="layer1"
     showgrid="false"
     inkscape:window-width="1366"
     inkscape:window-height="704"
     inkscape:window-x="0"
     inkscape:window-y="27"
     inkscape:window-maximized="1"
     fit-margin-top="0"
     fit-margin-left="0"
     fit-margin-right="0"
     fit-margin-bottom="0" />
  <metadata
     id="metadata4236">
    <rdf:RDF>
      <cc:Work
         rdf:about="">
        <dc:format>image/svg+xml</dc:format>
        <dc:type
           rdf:resource="http://purl.org/dc/dcmitype/StillImage" />
        <dc:title></dc:title>
      </cc:Work>
    </rdf:RDF>
  </metadata>
  <g
     inkscape:label="Layer 1"
     inkscape:groupmode="layer"
     id="layer1"
     transform="translate(-76.722445,-198.0454)">
    <path
       style="fill:#3095ee;fill-opacity:1;stroke:none"
       d="m 100.80257,229.98168 c -1.379425,-1.01753 -3.225804,-1.45915 -4.75547,-2.26788 -2.899185,-1.53257 -5.765838,-3.38263 -8.112269,-5.64852 -1.129732,-1.09092 -2.756912,-2.43317 -2.937426,-4.09307 -0.168705,-1.55151 1.505387,-2.62038 2.657691,-3.35829 3.36883,-2.15733 7.017954,-3.98272 10.629871,-5.71536 1.913853,-0.91809 3.892513,-1.73163 5.874403,-2.49881 5.70377,-2.20795 11.43271,-3.98758 17.62321,-3.98527 4.20048,0.002 8.12682,1.01368 10.6005,4.64003 0.73961,1.08407 1.2188,2.30994 1.61042,3.54825 0.53961,1.70701 0.65682,3.67853 0.65682,5.45885 -2.8e-4,2.68232 -1.11754,5.12586 -1.95814,7.64239 7.69127,-1.46032 8.25661,-10.50629 5.62936,-16.37655 -2.68125,-5.99166 -9.56688,-9.20456 -15.9795,-9.27899 -12.71472,-0.14759 -24.789836,5.06478 -35.526145,11.35344 -2.559029,1.49891 -5.160689,2.93047 -7.552799,4.67962 -0.779456,0.56994 -2.114932,1.3452 -2.468389,2.27746 -0.284423,0.75018 0.330485,1.37348 0.806606,1.88617 1.13552,1.22276 2.381648,2.40031 3.619916,3.52383 5.012208,4.54763 12.684538,7.91929 19.581341,8.2127 z"
       id="path3482"
       inkscape:connector-curvature="0"
       inkscape:export-xdpi="90"
       inkscape:export-ydpi="90" />
    <path
       style="fill:#00b6d5;fill-opacity:0.54268296;stroke:none"
       d="m 119.96657,209.45601 c -7.5093,1.33408 -8.25459,12.44262 -0.68188,14.33821 1.23716,0.30974 2.38862,0.33169 3.63669,0.0938 7.61726,-1.45067 7.66159,-12.55508 0.22729,-14.33458 -1.02441,-0.2452 -2.14337,-0.28202 -3.1821,-0.0975 z"
       id="path3488"
       inkscape:connector-curvature="0"
       inkscape:export-xdpi="90"
       inkscape:export-ydpi="90" />
    <path
       style="fill:#8adb04;fill-opacity:1;stroke:none"
       d="m 138.46089,201.98809 c 1.44622,1.41398 3.78339,1.83732 5.59466,2.721 3.19064,1.55661 6.37149,3.61679 8.95147,6.02392 1.17684,1.09797 3.09525,2.62202 3.20603,4.35633 0.0968,1.51223 -1.81855,2.63507 -2.92629,3.36502 -3.36883,2.21998 -7.19503,4.33747 -10.90961,5.95293 -1.85911,0.80852 -3.70422,1.62622 -5.59466,2.36398 -5.46068,2.13141 -10.84303,3.87606 -16.78401,3.87579 -4.25278,-2.8e-4 -8.20709,-1.09914 -10.53112,-4.91296 -0.61457,-1.0085 -1.06466,-2.14105 -1.3637,-3.27531 -0.42631,-1.61774 -0.80032,-3.51447 -0.64535,-5.18591 0.26547,-2.86732 1.00061,-5.46041 1.9103,-8.18828 -1.84344,-0.28927 -3.46785,0.64805 -4.72945,1.92154 -2.67613,2.70162 -3.22245,6.48367 -2.7424,10.08793 1.05449,7.91752 7.59522,14.1013 15.86385,14.45531 13.36315,0.57182 26.05521,-4.68424 37.20455,-11.53993 2.64068,-1.6237 5.39214,-3.13763 7.83253,-5.04648 0.77962,-0.60973 2.11003,-1.45686 2.26389,-2.50892 0.10629,-0.72693 -0.5108,-1.39782 -0.95054,-1.9106 -1.14942,-1.34042 -2.50026,-2.60616 -3.83095,-3.77466 -6.2926,-5.52591 -13.75029,-7.31388 -21.8192,-8.7807 z"
       id="path3484"
       inkscape:connector-curvature="0"
       inkscape:export-xdpi="90"
       inkscape:export-ydpi="90" />
    <text
       xml:space="preserve"
       style="font-style:normal;font-weight:normal;font-size:40px;line-height:125%;font-family:sans-serif;letter-spacing:0px;word-spacing:0px;fill:#000000;fill-opacity:1;stroke:none;stroke-width:1px;stroke-linecap:butt;stroke-linejoin:miter;stroke-opacity:1"
       x="194.95944"
       y="212.92545"
       id="text4249"
       sodipodi:linespacing="125%"><tspan
         sodipodi:role="line"
         id="tspan4251"
         x="194.95944"
         y="212.92545" /></text>
    <flowRoot
       xml:space="preserve"
       id="flowRoot4194"
       style="font-style:normal;font-weight:normal;font-size:15px;line-height:125%;font-family:sans-serif;letter-spacing:0px;word-spacing:0px;fill:#000000;fill-opacity:1;stroke:none;stroke-width:1px;stroke-linecap:butt;stroke-linejoin:miter;stroke-opacity:1"><flowRegion
         id="flowRegion4196"><rect
           id="rect4198"
           width="384.86813"
           height="93.944183"
           x="222.23357"
           y="187.67163" /></flowRegion><flowPara
         id="flowPara4200"></flowPara></flowRoot>    <text
       xml:space="preserve"
       style="font-style:normal;font-weight:normal;font-size:15px;line-height:125%;font-family:sans-serif;letter-spacing:0px;word-spacing:0px;fill:#000000;fill-opacity:1;stroke:none;stroke-width:1px;stroke-linecap:butt;stroke-linejoin:miter;stroke-opacity:1"
       x="322.23865"
       y="210.90514"
       id="text4202"
       sodipodi:linespacing="125%"><tspan
         sodipodi:role="line"
         id="tspan4204"
         x="322.23865"
         y="210.90514" /></text>
    <flowRoot
       xml:space="preserve"
       id="flowRoot4206"
       style="font-style:normal;font-weight:normal;font-size:15px;line-height:125%;font-family:sans-serif;letter-spacing:0px;word-spacing:0px;fill:#000000;fill-opacity:1;stroke:none;stroke-width:1px;stroke-linecap:butt;stroke-linejoin:miter;stroke-opacity:1"
       transform="matrix(1.2298293,0,0,1.2298293,-117.4589,-14.472587)"><flowRegion
         id="flowRegion4208"><rect
           id="rect4210"
           width="367.69553"
           height="133.34013"
           x="233.34525"
           y="171.50919" /></flowRegion><flowPara
         id="flowPara4212"
         style="font-style:normal;font-variant:normal;font-weight:900;font-stretch:normal;font-size:27.5px;font-family:Battlefin;-inkscape-font-specification:'Battlefin Heavy';fill:#ff1100;fill-opacity:1">Divya Eye Clinic</flowPara></flowRoot>  </g>
</svg>
