<?xml version="1.0" encoding="UTF-8" standalone="no"?>
<svg
   xmlns:dc="http://purl.org/dc/elements/1.1/"
   xmlns:cc="http://creativecommons.org/ns#"
   xmlns:rdf="http://www.w3.org/1999/02/22-rdf-syntax-ns#"
   xmlns:svg="http://www.w3.org/2000/svg"
   xmlns="http://www.w3.org/2000/svg"
   xmlns:sodipodi="http://sodipodi.sourceforge.net/DTD/sodipodi-0.dtd"
   xmlns:inkscape="http://www.inkscape.org/namespaces/inkscape"
   version="1.1"
   id="svg4310"
   viewBox="0 0 315.84082 137.5622"
   height="38.823109mm"
   width="89.137299mm"
   inkscape:version="0.91 r13725"
   sodipodi:docname="final2.svg">
  <sodipodi:namedview
     pagecolor="#ffffff"
     bordercolor="#666666"
     borderopacity="1"
     objecttolerance="10"
     gridtolerance="10"
     guidetolerance="10"
     inkscape:pageopacity="0"
     inkscape:pageshadow="2"
     inkscape:window-width="1366"
     inkscape:window-height="704"
     id="namedview4463"
     showgrid="false"
     inkscape:zoom="0.98150707"
     inkscape:cx="157.92041"
     inkscape:cy="68.781098"
     inkscape:window-x="0"
     inkscape:window-y="27"
     inkscape:window-maximized="1"
     inkscape:current-layer="layer1" />
  <defs
     id="defs4312" />
  <metadata
     id="metadata4315">
    <rdf:RDF>
      <cc:Work
         rdf:about="">
        <dc:format>image/svg+xml</dc:format>
        <dc:type
           rdf:resource="http://purl.org/dc/dcmitype/StillImage" />
        <dc:title />
      </cc:Work>
    </rdf:RDF>
  </metadata>
  <g
     transform="translate(-294.50506,-619.92996)"
     id="layer1">
    <path
       id="path3482"
       d="m 383.12106,733.91595 c -4.83083,-3.56347 -11.29698,-5.11005 -16.65398,-7.94228 -10.15315,-5.36718 -20.19237,-11.84621 -28.40974,-19.78152 -3.9564,-3.82048 -9.6549,-8.52114 -10.28707,-14.33423 -0.59082,-5.43351 5.27197,-9.17676 9.30742,-11.76095 11.79788,-7.55515 24.57737,-13.94778 37.22656,-20.0156 6.70244,-3.21524 13.63187,-6.06429 20.57257,-8.75103 19.97499,-7.73237 40.03815,-13.96479 61.71772,-13.95667 14.71037,0.006 28.46069,3.54998 37.1237,16.24969 2.59018,3.7965 4.26832,8.08958 5.63982,12.42623 1.88974,5.97807 2.30021,12.88247 2.30021,19.11729 -9.8e-4,9.39365 -3.91369,17.95112 -6.85752,26.76419 26.93537,-5.11416 28.91523,-36.79379 19.7144,-57.35185 -9.38991,-20.98322 -33.5039,-32.23501 -55.96132,-32.49569 -44.52786,-0.51687 -86.81577,17.73725 -124.41508,39.76055 -8.9619,5.24931 -18.0731,10.26273 -26.45044,16.38838 -2.72971,1.99595 -7.40664,4.71098 -8.64447,7.97583 -0.99607,2.62719 1.15738,4.81001 2.82479,6.6055 3.97667,4.28217 8.3407,8.40606 12.6772,12.34069 17.55311,15.92612 44.42215,27.73392 68.57523,28.76147 z"
       style="fill:#3095ee;stroke:none;fill-opacity:1" />
    <path
       id="path3488"
       d="m 450.23476,662.03359 c -26.29812,4.67204 -28.90818,43.57492 -2.38799,50.21343 4.33261,1.08473 8.36512,1.16161 12.73592,0.32864 26.67621,-5.08036 26.83144,-43.9688 0.79601,-50.20072 -3.58756,-0.8587 -7.50625,-0.98764 -11.14394,-0.34135 z"
       style="fill:#00b6d5;fill-opacity:0.54268295;stroke:none" />
    <path
       id="path3484"
       d="m 515.00316,635.88042 c 5.06477,4.95185 13.24971,6.4344 19.59292,9.52911 11.17384,5.45138 22.3134,12.66625 31.34868,21.0962 4.12137,3.84516 10.83978,9.18251 11.22772,15.25617 0.33896,5.29596 -6.36868,9.2282 -10.24808,11.78456 -11.79788,7.77452 -25.19748,15.19011 -38.2062,20.84758 -6.51073,2.83147 -12.97247,5.69514 -19.59292,8.27884 -19.12367,7.46434 -37.97305,13.57423 -58.77877,13.57328 -14.89356,-9.7e-4 -28.74184,-3.84927 -36.88074,-17.20556 -2.15228,-3.53182 -3.72853,-7.49809 -4.77578,-11.47037 -1.49298,-5.66541 -2.80276,-12.3079 -2.26004,-18.16142 0.92969,-10.04154 3.5042,-19.12273 6.69,-28.67592 -6.45586,-1.01303 -12.14467,2.2695 -16.56287,6.72937 -9.37198,9.46125 -11.28523,22.70627 -9.60406,35.32864 3.69287,27.72772 26.59896,49.38377 55.55632,50.62353 46.79868,2.00254 91.24718,-16.40454 130.29294,-40.41365 9.24786,-5.68634 18.88366,-10.98823 27.43009,-17.67316 2.73028,-2.13531 7.38947,-5.10202 7.92828,-8.7864 0.37226,-2.54575 -1.78883,-4.89526 -3.32884,-6.69105 -4.02536,-4.69425 -8.75608,-9.12697 -13.41625,-13.21912 -22.03714,-19.35215 -48.15451,-25.61372 -76.4124,-30.75063 z"
       style="fill:#8bc004;stroke:none;fill-opacity:1" />
  </g>
</svg>
