<?xml version="1.0" encoding="UTF-8" standalone="no"?>
<!-- Created with Inkscape (http://www.inkscape.org/) -->

<svg
   xmlns:dc="http://purl.org/dc/elements/1.1/"
   xmlns:cc="http://creativecommons.org/ns#"
   xmlns:rdf="http://www.w3.org/1999/02/22-rdf-syntax-ns#"
   xmlns:svg="http://www.w3.org/2000/svg"
   xmlns="http://www.w3.org/2000/svg"
   xmlns:sodipodi="http://sodipodi.sourceforge.net/DTD/sodipodi-0.dtd"
   xmlns:inkscape="http://www.inkscape.org/namespaces/inkscape"
   width="83.001595mm"
   height="17.965113mm"
   viewBox="0 0 294.10014 63.655911"
   id="svg4220"
   version="1.1"
   inkscape:version="0.91 r13725"
   sodipodi:docname="logobrands.svg">
  <defs
     id="defs4222" />
  <sodipodi:namedview
     id="base"
     pagecolor="#ffffff"
     bordercolor="#666666"
     borderopacity="1.0"
     inkscape:pageopacity="0.0"
     inkscape:pageshadow="2"
     inkscape:zoom="1.4"
     inkscape:cx="136.30362"
     inkscape:cy="0.72259275"
     inkscape:document-units="px"
     inkscape:current-layer="layer1"
     showgrid="false"
     inkscape:window-width="1366"
     inkscape:window-height="704"
     inkscape:window-x="0"
     inkscape:window-y="27"
     inkscape:window-maximized="1"
     fit-margin-top="0"
     fit-margin-left="0"
     fit-margin-right="0"
     fit-margin-bottom="0" />
  <metadata
     id="metadata4225">
    <rdf:RDF>
      <cc:Work
         rdf:about="">
        <dc:format>image/svg+xml</dc:format>
        <dc:type
           rdf:resource="http://purl.org/dc/dcmitype/StillImage" />
        <dc:title></dc:title>
      </cc:Work>
    </rdf:RDF>
  </metadata>
  <g
     inkscape:label="Layer 1"
     inkscape:groupmode="layer"
     id="layer1"
     transform="translate(-70.293873,-216.61682)">
    <path
       inkscape:connector-curvature="0"
       id="path3482"
       d="m 103.77506,261.02128 c -1.91795,-1.41478 -4.485174,-2.02882 -6.612035,-3.15328 -4.031049,-2.1309 -8.016865,-4.70324 -11.279362,-7.85375 -1.570788,-1.51682 -3.833232,-3.3831 -4.084219,-5.69104 -0.23457,-2.15724 2.093102,-3.6434 3.695274,-4.66938 4.684047,-2.99958 9.757818,-5.53761 14.779852,-7.94669 2.66104,-1.27653 5.41219,-2.40767 8.16782,-3.47437 7.93056,-3.06994 15.89613,-5.54436 24.50344,-5.54114 5.84039,0.002 11.2996,1.40943 14.73902,6.45153 1.02836,1.5073 1.69463,3.21175 2.23915,4.93351 0.75027,2.37344 0.91324,5.11466 0.91324,7.59003 -3.9e-4,3.72952 -1.55383,7.12704 -2.72261,10.62605 10.69401,-2.03045 11.48006,-14.60804 7.82711,-22.77009 -3.72803,-8.33086 -13.30187,-12.79809 -22.21802,-12.90159 -17.67865,-0.20521 -34.467986,7.04213 -49.395833,15.78592 -3.558094,2.0841 -7.175464,4.07455 -10.501474,6.50658 -1.083761,0.79244 -2.940617,1.87038 -3.432066,3.1666 -0.395464,1.04306 0.459508,1.9097 1.121511,2.62255 1.578835,1.70012 3.311463,3.33741 5.03316,4.89955 6.969014,6.32307 17.636681,11.01105 27.226042,11.41901 z"
       style="fill:#3095ee;fill-opacity:1;stroke:none" />
    <path
       inkscape:connector-curvature="0"
       id="path3488"
       d="m 130.42085,232.48222 c -10.441,1.85492 -11.47726,17.30031 -0.94809,19.93597 1.72015,0.43066 3.32116,0.46119 5.05647,0.13047 10.5911,-2.01703 10.65274,-17.45669 0.31603,-19.93091 -1.42435,-0.34093 -2.98016,-0.39212 -4.42441,-0.13553 z"
       style="fill:#00b6d5;fill-opacity:0.54268296;stroke:none" />
    <path
       inkscape:connector-curvature="0"
       id="path3484"
       d="m 156.13549,222.09877 c 2.01084,1.96601 5.26046,2.55462 7.77887,3.78329 4.43628,2.16433 8.85896,5.02881 12.44619,8.37571 1.63629,1.52662 4.30366,3.64568 4.45768,6.05708 0.13458,2.10262 -2.52853,3.66382 -4.06874,4.67875 -4.68404,3.08668 -10.00401,6.03085 -15.1688,8.277 -2.58491,1.12417 -5.15038,2.26111 -7.77886,3.2869 -7.59257,2.96353 -15.07624,5.38931 -23.33661,5.38893 -5.91311,-3.8e-4 -11.41122,-1.52825 -14.64256,-6.83103 -0.85451,-1.40221 -1.48032,-2.97692 -1.8961,-4.55401 -0.59275,-2.24931 -1.11277,-4.88655 -0.8973,-7.21053 0.36911,-3.98674 1.39126,-7.5922 2.6561,-11.38504 -2.56314,-0.40221 -4.82173,0.90104 -6.57587,2.67172 -3.7209,3.75635 -4.48051,9.01494 -3.81304,14.02633 1.46616,11.00859 10.56043,19.60657 22.05722,20.09879 18.58022,0.79505 36.22736,-6.51301 51.72949,-16.04521 3.67162,-2.25762 7.49727,-4.3626 10.89041,-7.01668 1.08399,-0.84778 2.9338,-2.02563 3.14773,-3.48841 0.14779,-1.01073 -0.71021,-1.94354 -1.32164,-2.65652 -1.59816,-1.86373 -3.47637,-3.62362 -5.32658,-5.24831 -8.74928,-7.68328 -19.11852,-10.16928 -30.33759,-12.20876 z"
       style="fill:#8bc004;fill-opacity:1;stroke:none" />
    <text
       xml:space="preserve"
       style="font-style:normal;font-weight:normal;font-size:19.07601357px;line-height:99.00000095%;font-family:sans-serif;text-align:center;letter-spacing:0px;word-spacing:0px;text-anchor:middle;fill:#000000;fill-opacity:1;stroke:none;stroke-width:1px;stroke-linecap:butt;stroke-linejoin:miter;stroke-opacity:1"
       x="275.68509"
       y="241.48483"
       id="text4778"
       sodipodi:linespacing="99.000001%"><tspan
         sodipodi:role="line"
         id="tspan4780"
         x="279.25562"
         y="241.48483"
         style="font-style:normal;font-variant:normal;font-weight:900;font-stretch:normal;font-size:31.79335594px;line-height:99.00000095%;font-family:Battlefin;-inkscape-font-specification:'Battlefin Heavy';fill:#ff0000;fill-opacity:1">Divya </tspan><tspan
         sodipodi:role="line"
         x="275.68509"
         y="272.96027"
         id="tspan4782"
         style="font-style:normal;font-variant:normal;font-weight:900;font-stretch:normal;font-size:31.79335594px;line-height:99.00000095%;font-family:Battlefin;-inkscape-font-specification:'Battlefin Heavy';fill:#ff0000;fill-opacity:1">Eye Clinic</tspan></text>
  </g>
</svg>
