<?xml version="1.0" encoding="UTF-8" standalone="no"?>
<svg
   xmlns:dc="http://purl.org/dc/elements/1.1/"
   xmlns:cc="http://creativecommons.org/ns#"
   xmlns:rdf="http://www.w3.org/1999/02/22-rdf-syntax-ns#"
   xmlns:svg="http://www.w3.org/2000/svg"
   xmlns="http://www.w3.org/2000/svg"
   xmlns:sodipodi="http://sodipodi.sourceforge.net/DTD/sodipodi-0.dtd"
   xmlns:inkscape="http://www.inkscape.org/namespaces/inkscape"
   version="1.1"
   id="svg4220"
   viewBox="0 0 294.10014 63.655911"
   height="17.965113mm"
   width="83.001595mm"
   inkscape:version="0.91 r13725"
   sodipodi:docname="plainlogobrandsv2.svg">
  <sodipodi:namedview
     pagecolor="#ffffff"
     bordercolor="#666666"
     borderopacity="1"
     objecttolerance="10"
     gridtolerance="10"
     guidetolerance="10"
     inkscape:pageopacity="0"
     inkscape:pageshadow="2"
     inkscape:window-width="1366"
     inkscape:window-height="704"
     id="namedview12"
     showgrid="false"
     inkscape:zoom="1.0404619"
     inkscape:cx="147.05007"
     inkscape:cy="31.827956"
     inkscape:window-x="0"
     inkscape:window-y="27"
     inkscape:window-maximized="1"
     inkscape:current-layer="layer1" />
  <defs
     id="defs4222" />
  <metadata
     id="metadata4225">
    <rdf:RDF>
      <cc:Work
         rdf:about="">
        <dc:format>image/svg+xml</dc:format>
        <dc:type
           rdf:resource="http://purl.org/dc/dcmitype/StillImage" />
        <dc:title />
      </cc:Work>
    </rdf:RDF>
  </metadata>
  <g
     transform="translate(-70.293873,-216.61682)"
     id="layer1">
    <path
       style="fill:#3095ee;fill-opacity:1;stroke:none"
       d="m 106.28264,263.19696 c -1.73426,-1.27928 -4.05559,-1.83451 -5.97875,-2.85127 -3.644975,-1.92681 -7.249044,-4.25278 -10.199072,-7.10155 -1.420344,-1.37154 -3.4661,-3.05908 -3.693048,-5.14597 -0.212104,-1.95063 1.892632,-3.29445 3.341355,-4.22217 4.235427,-2.71229 8.823251,-5.00724 13.364295,-7.18558 2.40617,-1.15427 4.89383,-2.17708 7.38553,-3.14161 7.171,-2.77591 14.37366,-5.01334 22.1566,-5.01043 5.28102,0.002 10.21736,1.27444 13.32737,5.83362 0.92987,1.36294 1.53233,2.90415 2.02469,4.461 0.67842,2.14612 0.82578,4.6248 0.82578,6.86309 -3.6e-4,3.37232 -1.40501,6.44444 -2.46185,9.60833 9.66978,-1.83598 10.38054,-13.20894 7.07746,-20.58926 -3.37098,-7.53296 -12.02787,-11.57234 -20.09007,-11.66593 -15.98545,-0.18555 -31.16676,6.36766 -44.664882,14.27401 -3.217313,1.88449 -6.488225,3.6843 -9.495683,5.8834 -0.979963,0.71655 -2.658976,1.69124 -3.103356,2.86332 -0.357588,0.94316 0.415498,1.72679 1.014097,2.37137 1.42762,1.53729 2.994304,3.01777 4.551103,4.43029 6.301549,5.71747 15.947508,9.95645 24.618431,10.32534 z"
       id="path3482" />
    <path
       style="fill:#00b6d5;fill-opacity:0.54268296;stroke:none"
       d="m 130.3764,237.39126 c -9.441,1.67727 -10.37801,15.64336 -0.85729,18.02658 1.5554,0.38942 3.00308,0.41702 4.57218,0.11798 9.57673,-1.82385 9.63247,-15.78476 0.28577,-18.02201 -1.28793,-0.30827 -2.69474,-0.35456 -4.00066,-0.12255 z"
       id="path3488" />
    <path
       style="fill:#8bc004;fill-opacity:1;stroke:none"
       d="m 153.62819,228.0023 c 1.81825,1.77771 4.75663,2.30995 7.03384,3.42094 4.01139,1.95704 8.01048,4.54717 11.25414,7.57352 1.47957,1.3804 3.89147,3.29651 4.03074,5.47695 0.12169,1.90124 -2.28635,3.31292 -3.67905,4.23064 -4.23542,2.79105 -9.04586,5.45324 -13.71599,7.48426 -2.33734,1.0165 -4.6571,2.04455 -7.03383,2.97209 -6.86538,2.6797 -13.6323,4.87315 -21.10152,4.8728 -5.34678,-3.4e-4 -10.3183,-1.38188 -13.24015,-6.17678 -0.77267,-1.26791 -1.33854,-2.6918 -1.7145,-4.11784 -0.53598,-2.03388 -1.00619,-4.41854 -0.81136,-6.51993 0.33376,-3.60491 1.25801,-6.86505 2.40171,-10.29463 -2.31765,-0.36369 -4.35993,0.81474 -5.94606,2.41583 -3.36453,3.39659 -4.05138,8.15153 -3.44784,12.68295 1.32573,9.95423 9.54899,17.72872 19.94466,18.1738 16.80068,0.7189 32.75765,-5.88922 46.77504,-14.50846 3.31997,-2.04139 6.77921,-3.94477 9.84737,-6.34465 0.98017,-0.76658 2.65281,-1.83162 2.84625,-3.1543 0.13364,-0.91393 -0.64219,-1.7574 -1.19506,-2.40209 -1.44509,-1.68523 -3.14341,-3.27657 -4.81642,-4.74565 -7.9113,-6.9474 -17.28742,-9.1953 -27.43197,-11.03945 z"
       id="path3484" />
    <defs>
  <style type="text/css">
   <![CDATA[
    @font-face {
        font-family: Battlefin;
        src: url('http://buggydebugger.com/divya/fonts/Battlefin-Black.otf');
    }
   ]]>
 </style>
</defs>
    <text
       id="text4778"
       y="244.87949"
       x="268.28064"
       style="font-style:normal;font-weight:normal;font-size:17.28512192px;line-height:99.00000095%;font-family:sans-serif;text-align:center;letter-spacing:0px;word-spacing:0px;text-anchor:middle;fill:#000000;fill-opacity:1;stroke:none;stroke-width:1px;stroke-linecap:butt;stroke-linejoin:miter;stroke-opacity:1"
       xml:space="preserve"
       sodipodi:linespacing="99.000001%"><tspan
         style="font-style:normal;font-variant:normal;font-weight:900;font-stretch:normal;font-size:28.80853844px;line-height:99.00000095%;font-family:Battlefin;-inkscape-font-specification:'Battlefin Heavy';fill:#ff0000;fill-opacity:1"
         y="244.87949"
         x="271.51596"
         id="tspan4780">Divya </tspan><tspan
         style="font-style:normal;font-variant:normal;font-weight:900;font-stretch:normal;font-size:28.80853844px;line-height:99.00000095%;font-family:Battlefin;-inkscape-font-specification:'Battlefin Heavy';fill:#ff0000;fill-opacity:1"
         id="tspan4782"
         y="273.39993"
         x="268.28064">Eye Clinic</tspan></text>
  </g>
</svg>
