<?xml version="1.0" encoding="UTF-8" standalone="no"?>
<svg id="svg4220" xmlns:rdf="http://www.w3.org/1999/02/22-rdf-syntax-ns#" xmlns="http://www.w3.org/2000/svg" viewBox="0 0 294.10014 63.655911" height="17.965mm" width="83.002mm" version="1.1" xmlns:cc="http://creativecommons.org/ns#" xmlns:dc="http://purl.org/dc/elements/1.1/">
 <metadata id="metadata4225">
  <rdf:RDF>
   <cc:Work rdf:about="">
    <dc:format>image/svg+xml</dc:format>
    <dc:type rdf:resource="http://purl.org/dc/dcmitype/StillImage"/>
    <dc:title/>
   </cc:Work>
  </rdf:RDF>
 </metadata>
 <g id="layer1" transform="translate(-70.294 -216.62)">
  <path id="path3482" fill="#3095ee" d="m106.28 263.2c-1.7343-1.2793-4.0556-1.8345-5.9788-2.8513-3.645-1.9268-7.249-4.2528-10.199-7.1016-1.4203-1.3715-3.4661-3.0591-3.693-5.146-0.2121-1.9506 1.8926-3.2944 3.3414-4.2222 4.2354-2.7123 8.8233-5.0072 13.364-7.1856 2.4062-1.1543 4.8938-2.1771 7.3855-3.1416 7.171-2.7759 14.374-5.0133 22.157-5.0104 5.281 0.002 10.217 1.2744 13.327 5.8336 0.92987 1.3629 1.5323 2.9042 2.0247 4.461 0.67842 2.1461 0.82578 4.6248 0.82578 6.8631-0.00036 3.3723-1.405 6.4444-2.4618 9.6083 9.6698-1.836 10.381-13.209 7.0775-20.589-3.371-7.533-12.028-11.572-20.09-11.666-15.985-0.18555-31.167 6.3677-44.665 14.274-3.2173 1.8845-6.4882 3.6843-9.4957 5.8834-0.97996 0.71655-2.659 1.6912-3.1034 2.8633-0.35759 0.94316 0.4155 1.7268 1.0141 2.3714 1.4276 1.5373 2.9943 3.0178 4.5511 4.4303 6.3015 5.7175 15.948 9.9564 24.618 10.325z"/>
  <path id="path3488" fill-opacity=".54268" fill="#00b6d5" d="m130.38 237.39c-9.441 1.6773-10.378 15.643-0.85729 18.027 1.5554 0.38942 3.0031 0.41702 4.5722 0.11798 9.5767-1.8238 9.6325-15.785 0.28577-18.022-1.2879-0.30827-2.6947-0.35456-4.0007-0.12255z"/>
  <path id="path3484" fill="#8bc004" d="m153.63 228c1.8182 1.7777 4.7566 2.31 7.0338 3.4209 4.0114 1.957 8.0105 4.5472 11.254 7.5735 1.4796 1.3804 3.8915 3.2965 4.0307 5.477 0.12169 1.9012-2.2864 3.3129-3.679 4.2306-4.2354 2.791-9.0459 5.4532-13.716 7.4843-2.3373 1.0165-4.6571 2.0446-7.0338 2.9721-6.8654 2.6797-13.632 4.8732-21.102 4.8728-5.3468-0.00034-10.318-1.3819-13.24-6.1768-0.77267-1.2679-1.3385-2.6918-1.7145-4.1178-0.53598-2.0339-1.0062-4.4185-0.81136-6.5199 0.33376-3.6049 1.258-6.865 2.4017-10.295-2.3176-0.36369-4.3599 0.81474-5.9461 2.4158-3.3645 3.3966-4.0514 8.1515-3.4478 12.683 1.3257 9.9542 9.549 17.729 19.945 18.174 16.801 0.7189 32.758-5.8892 46.775-14.508 3.32-2.0414 6.7792-3.9448 9.8474-6.3446 0.98017-0.76658 2.6528-1.8316 2.8462-3.1543 0.13364-0.91393-0.64219-1.7574-1.1951-2.4021-1.4451-1.6852-3.1434-3.2766-4.8164-4.7456-7.9113-6.9474-17.287-9.1953-27.432-11.039z"/>
  <text id="text4778" style="word-spacing:0px;letter-spacing:0px;text-anchor:middle;text-align:center" line-height="99.00000095%" font-weight="900" font-size="28.809px" y="244.87949" x="268.28064" font-family="Battlefin" xml:space="preserve" fill="#ff0000"><tspan id="tspan4780" line-height="99.00000095%" y="244.87949" x="271.51596">Divya </tspan><tspan id="tspan4782" line-height="99.00000095%" y="273.39993" x="268.28064">Eye Clinic</tspan></text>
 </g>
</svg>
