<?xml version="1.0" encoding="utf-8"?>
<!-- Generator: Adobe Illustrator 19.0.0, SVG Export Plug-In . SVG Version: 6.00 Build 0)  -->
<svg version="1.1"
	 id="svg4220" xmlns:cc="http://creativecommons.org/ns#" xmlns:dc="http://purl.org/dc/elements/1.1/" xmlns:rdf="http://www.w3.org/1999/02/22-rdf-syntax-ns#" xmlns:svg="http://www.w3.org/2000/svg"
	 xmlns="http://www.w3.org/2000/svg" xmlns:xlink="http://www.w3.org/1999/xlink" x="0px" y="0px" viewBox="-187 371.1 235.3 50.9"
	 style="enable-background:new -187 371.1 235.3 50.9;" xml:space="preserve">
<style type="text/css">
	.st0{fill:#3095EE;}
	.st1{fill:#00B6D5;fill-opacity:0.5427;}
	.st2{fill:#8BC004;}
	.st3{enable-background:new    ;}
	.st4{fill:#FF0000;}
</style>
<g id="layer1" transform="translate(-70.293873,-216.61682)">
	<path id="path3482" class="st0" d="M-87.3,623.5c-1.4-1-3.2-1.5-4.8-2.3c-2.9-1.5-5.8-3.4-8.2-5.7c-1.1-1.1-2.8-2.4-3-4.1
		c-0.2-1.6,1.5-2.6,2.7-3.4c3.4-2.2,7.1-4,10.7-5.7c1.9-0.9,3.9-1.7,5.9-2.5c5.7-2.2,11.5-4,17.7-4c4.2,0,8.2,1,10.7,4.7
		c0.7,1.1,1.2,2.3,1.6,3.6c0.5,1.7,0.7,3.7,0.7,5.5c0,2.7-1.1,5.2-2,7.7c7.7-1.5,8.3-10.6,5.7-16.5c-2.7-6-9.6-9.3-16.1-9.3
		c-12.8-0.1-24.9,5.1-35.7,11.4c-2.6,1.5-5.2,2.9-7.6,4.7c-0.8,0.6-2.1,1.4-2.5,2.3c-0.3,0.8,0.3,1.4,0.8,1.9
		c1.1,1.2,2.4,2.4,3.6,3.5C-101.9,619.8-94.2,623.2-87.3,623.5L-87.3,623.5z"/>
	<path id="path3488" class="st1" d="M-68,602.8c-7.6,1.3-8.3,12.5-0.7,14.4c1.2,0.3,2.4,0.3,3.7,0.1c7.7-1.5,7.7-12.6,0.2-14.4
		C-65.8,602.7-67,602.6-68,602.8L-68,602.8z"/>
	<path id="path3484" class="st2" d="M-49.4,595.3c1.5,1.4,3.8,1.8,5.6,2.7c3.2,1.6,6.4,3.6,9,6.1c1.2,1.1,3.1,2.6,3.2,4.4
		c0.1,1.5-1.8,2.7-2.9,3.4c-3.4,2.2-7.2,4.4-11,6c-1.9,0.8-3.7,1.6-5.6,2.4c-5.5,2.1-10.9,3.9-16.9,3.9c-4.3,0-8.3-1.1-10.6-4.9
		c-0.6-1-1.1-2.2-1.4-3.3c-0.4-1.6-0.8-3.5-0.6-5.2c0.3-2.9,1-5.5,1.9-8.2c-1.9-0.3-3.5,0.7-4.8,1.9c-2.7,2.7-3.2,6.5-2.8,10.1
		c1.1,8,7.6,14.2,16,14.5c13.4,0.6,26.2-4.7,37.4-11.6c2.7-1.6,5.4-3.2,7.9-5.1c0.8-0.6,2.1-1.5,2.3-2.5c0.1-0.7-0.5-1.4-1-1.9
		c-1.2-1.3-2.5-2.6-3.9-3.8C-33.8,598.6-41.3,596.8-49.4,595.3L-49.4,595.3z"/>
	<g class="st3">
		<path class="st4" d="M15.7,606.7H2v-0.7l1.7-0.7V592L2,591.1v-1.2h11.6c7.2,0,10.5,3.3,10.5,8.4C24.1,603.1,21.3,606.7,15.7,606.7
			z M12.9,592.4h-2.6v11.7h3.6c1.9,0,3.3-2,3.3-6C17.2,595.6,16.6,592.4,12.9,592.4z"/>
		<path class="st4" d="M34.5,606.7H26v-0.5l1.1-0.5v-6.8l-2-1v-1.3c2.3,0,2.7,0,2.7,0c2.7,0,4.2-0.8,5-1.4h0.5v10.6l1.1,0.5V606.7z
			 M29.7,594.8c-1.7,0-3.1-1.4-3.1-3.1c0-1.7,1.4-3.1,3.1-3.1c1.7,0,3.1,1.4,3.1,3.1C32.8,593.4,31.4,594.8,29.7,594.8z"/>
		<path class="st4" d="M53.5,595.1l-2,1l-6.2,10.5h-3.2l-5.3-10.5l-2-1v-1.3h9.9v1.3l-1.1,0.6l2.5,5.3h0.1l2.7-5.4l-1.1-0.6v-1.3
			h5.7V595.1z"/>
		<path class="st4" d="M72.5,595.1l-1.6,0.4l-5.5,11.1c-1.9,3.9-3.3,5.9-6.7,5.9c-2.7,0-4-1.6-4-3c0-1.3,0.7-2.2,2.3-2.2
			c1.1,0,1.8,0.7,1.8,1.7c0,0.7-0.1,1.2-0.8,1.9v0.3c0.1,0.1,0.4,0.1,0.8,0.1c1.9,0,2.5-1.2,3.7-3.7l-6.7-11.9l-1.7-0.5v-1.2h9.8
			v1.3l-1,0.4l2.9,5.1h0.1l2.5-5.1l-1.2-0.4v-1.3h5.3V595.1z"/>
		<path class="st4" d="M89.1,606.4c0,0-1.4,0.7-3.2,0.7c-0.6,0-3.2,0-3.9-1.7h-0.1c-1.1,0.9-3.1,1.7-4.6,1.7c-2.6,0-4.1-1.2-4.1-3.3
			c0-3.4,3.2-3.8,8.6-5v-0.6c0-2.1-0.8-3-2.4-3c-0.7,0-1.3,0.1-1.7,0.2v0.2c0.3,0.3,0.7,0.8,0.7,1.5c0,0.8-0.6,1.7-1.8,1.7
			c-1,0-2.2-0.6-2.2-2.1c0-1.9,1.7-3.2,5.9-3.2c4.1,0,7.7,0.7,7.7,4.6l0,7.5l1.1,0.5V606.4z M81.8,600.3c-2.6,0.9-3.4,1.4-3.4,2.9
			c0,1,0.4,1.5,1.4,1.5c0.7,0,1.4-0.4,1.9-0.8V600.3z"/>
	</g>
	<g class="st3">
		<path class="st4" d="M-8,631.8h-17.4v-0.7l1.7-0.7v-13.2l-1.7-0.9V615h16.8v5l-1.7,0.3l-1-2.8h-5.8v4.6h2.7l0.7-1.7h1.1v6h-1.1
			l-0.7-1.7l0,0h-2.7v4.6h6.3l1-2.8l1.8,0.4V631.8z"/>
		<path class="st4" d="M10.7,620.3l-1.6,0.4l-5.5,11.1c-1.9,3.9-3.3,5.9-6.7,5.9c-2.7,0-4-1.6-4-3c0-1.3,0.7-2.2,2.3-2.2
			c1.1,0,1.8,0.7,1.8,1.7c0,0.7-0.1,1.2-0.8,1.9v0.3c0.1,0.1,0.4,0.1,0.8,0.1c1.9,0,2.5-1.2,3.7-3.7L-6,620.7l-1.7-0.5V619h9.8v1.3
			l-1,0.4l2.9,5.1h0.1l2.5-5.1l-1.2-0.4V619h5.3V620.3z"/>
		<path class="st4" d="M26.4,629.3c0,0-2.4,2.9-7.3,2.9c-3.3,0-8.2-1.8-8.2-6.6c0-4.3,3.5-7,7.9-7c6.1,0,7.5,2.7,7.5,5.6
			c0,3.2-1.4,3.3-5,3.3h-4c0,2,0.6,2.6,2.6,2.6c2.8,0,4.5-0.9,5.8-1.8L26.4,629.3z M18.6,620.3c-1.6,0-1.4,1.8-1.4,4.4v1.2
			c2.6,0,3.3,0.3,3.3-1.9C20.5,621.5,19.9,620.3,18.6,620.3z"/>
		<path class="st4" d="M52.4,629c-2,2.2-5.2,3.3-8.3,3.3c-5.5,0-10-2.5-10-8.5c0-5.5,4.4-9.2,9.6-9.2c2.7,0,4.6,1.1,5.8,2h0.1
			l0.8-1.6h1.8v6.7l-2.4,0.4c-1.1-3.8-3.3-5.1-4.8-5.1c-2.5,0-4.1,2.3-4.1,6.7c0,4.2,2.4,6,4.6,6c2.6,0,4.9-1.3,6.2-1.9L52.4,629z"
			/>
		<path class="st4" d="M62.6,631.8h-8.5v-0.5l1.1-0.5v0v-13.6l-2-1V615H56c2.7,0,4.2-0.8,5-1.4h0.6v17.3l1.1,0.5V631.8z"/>
		<path class="st4" d="M72.4,631.8h-8.4v-0.5l1.1-0.5v-6.8l-2-1v-1.3c2.3,0,2.7,0,2.7,0c2.7,0,4.2-0.8,5-1.4h0.5v10.6l1.1,0.5V631.8
			z M67.6,619.9c-1.7,0-3.1-1.4-3.1-3.1c0-1.7,1.4-3.1,3.1-3.1c1.7,0,3.1,1.4,3.1,3.1C70.7,618.5,69.3,619.9,67.6,619.9z"/>
		<path class="st4" d="M91.2,631.8h-7.3v-8.1c0-1.1-0.3-1.5-1.3-1.5c-0.6,0-1.2,0.3-1.7,0.5v8.1l1.1,0.5v0.5h-8.4v-0.5l1.1-0.5v-7
			L73,623v-1.3c2.5,0,3.8-1.4,3.8-1.4h1l0.3,1.6h0.1c2.2-1.1,5.2-3.3,8-3.3c3.1,0,4,2,4,4.2v8.1l1.1,0.5V631.8z"/>
		<path class="st4" d="M100.9,631.8h-8.4v-0.5l1.1-0.5v-6.8l-2-1v-1.3c2.3,0,2.7,0,2.7,0c2.7,0,4.2-0.8,5-1.4h0.5v10.6l1.1,0.5
			V631.8z M96.2,619.9c-1.7,0-3.1-1.4-3.1-3.1c0-1.7,1.4-3.1,3.1-3.1c1.7,0,3.1,1.4,3.1,3.1C99.3,618.5,97.9,619.9,96.2,619.9z"/>
		<path class="st4" d="M116.3,630.1c-0.8,0.8-2.9,2.1-6,2.1c-3.3,0-8-1.8-8-6.6c0-4.3,3.6-7,7.9-7c5.4,0,6.1,2.6,6.1,3.7
			c0,1.7-0.8,3.1-2.5,3.1c-1.5,0-2.1-1-2.1-2c0-1.4,1.2-2.4,1.2-2.4v-0.3c-0.6-0.3-1-0.3-1.5-0.3c-2,0-2.8,1.3-2.8,5.3
			c0,2.3,0.5,4.5,3.2,4.5c1.6,0,2.7-0.4,3.8-1L116.3,630.1z"/>
	</g>
</g>
</svg>
